<?xml version="1.0" encoding="UTF-8"?>
<svg version="1.1" xmlns="http://www.w3.org/2000/svg" width="1600" height="1200">
<path d="M0 0 C1.56764221 1.58879089 1.56764221 1.58879089 2.91235352 3.67651367 C3.42868347 4.46151749 3.94501343 5.2465213 4.47698975 6.05531311 C5.02212219 6.91748947 5.56725464 7.77966583 6.12890625 8.66796875 C6.71214661 9.56305649 7.29538696 10.45814423 7.89630127 11.38035583 C9.79920368 14.30715762 11.68078403 17.24704168 13.5625 20.1875 C14.86195863 22.19486276 16.16299127 24.20120745 17.46557617 26.20654297 C19.43064473 29.23271464 21.39435924 32.25968738 23.35212708 35.29058838 C27.30255613 41.40524733 31.29694097 47.48653065 35.359375 53.52734375 C36.07062782 54.58561623 36.07062782 54.58561623 36.79624939 55.66526794 C38.56339017 58.2915969 40.33264197 60.91645724 42.10769653 63.53744507 C43.29055181 65.28538817 44.46801175 67.03685151 45.64453125 68.7890625 C46.29784424 69.75537598 46.95115723 70.72168945 47.62426758 71.71728516 C49 74 49 74 49 76 C48.14583496 76.45213867 47.29166992 76.90427734 46.41162109 77.37011719 C31.66925427 85.17626217 16.93286193 92.98884597 2.30371094 101.00585938 C-5.09984389 105.06283624 -12.53946284 109.04893671 -20 113 C-18.79988281 113.13535156 -17.59976563 113.27070313 -16.36328125 113.41015625 C5.60246908 116.14334514 26.97439705 122.76045462 44.046875 137.3359375 C46.10159161 139.15250232 46.10159161 139.15250232 49 141 C49.06243896 140.26475098 49.12487793 139.52950195 49.18920898 138.77197266 C51.21019734 118.30484315 51.21019734 118.30484315 55.84082031 112.81933594 C59.84155622 109.63082076 64.27891313 107.49588247 69.06469727 105.73242188 C71.01583462 105.06056659 71.01583462 105.06056659 72.70817566 103.96841431 C75.77138399 102.67405037 78.28122467 102.76045573 81.60449219 102.77294922 C82.25856552 102.77265717 82.91263885 102.77236511 83.58653259 102.77206421 C85.74011683 102.77345324 87.89335149 102.78899392 90.046875 102.8046875 C91.54331269 102.80841916 93.03975283 102.81126541 94.53619385 102.81326294 C98.4686359 102.8208874 102.40092947 102.84052562 106.33331299 102.8626709 C110.34849031 102.88315494 114.3636917 102.89227012 118.37890625 102.90234375 C126.25267219 102.9237727 134.12631761 102.95789424 142 103 C142 102.34 142 101.68 142 101 C161.49010904 86.22993361 181.31824655 87.50557099 204.59136963 88.17602539 C209.38512811 88.30062137 214.17968541 88.35397202 218.97460938 88.4140625 C228.31845474 88.54129195 237.65882609 88.74502126 247 89 C248.81975831 94.81085397 249.85225177 100.60594728 250.78759766 106.61694336 C250.95370041 107.6615976 251.11980316 108.70625183 251.29093933 109.78256226 C251.83609074 113.21768624 252.37511004 116.65374221 252.9140625 120.08984375 C253.29196989 122.47886542 253.67026102 124.86782642 254.04891968 127.25672913 C255.04240709 133.53114782 256.03068946 139.80637556 257.0178833 146.08178711 C258.02700373 152.49056924 259.04105408 158.89857102 260.0546875 165.30664062 C262.04127893 177.87033549 264.02253903 190.43486499 266 203 C269.9404131 203 271.54629875 201.54088796 274.875 199.4375 C291.43747318 189.6226197 308.7768688 187.4028914 328 185 C328 164.54 328 144.08 328 123 C351.1530956 110.87218802 351.1530956 110.87218802 365.59925842 114.05589294 C367.04380402 114.36915024 367.04380402 114.36915024 368.51753235 114.68873596 C369.53147568 114.91576706 370.54541901 115.14279816 371.59008789 115.37670898 C372.69063507 115.61748169 373.79118225 115.85825439 374.92507935 116.10632324 C378.52581914 116.89606152 382.12427537 117.69568159 385.72265625 118.49609375 C388.23554697 119.05076167 390.7485234 119.6050414 393.26158142 120.15895081 C398.50831735 121.31706914 403.75394662 122.48002513 408.9987793 123.64672852 C415.06200935 124.99538275 421.12747111 126.33362013 427.19414908 127.66667122 C433.04492559 128.95262657 438.89383062 130.24687683 444.74200249 131.54463387 C447.22671008 132.09507657 449.7119165 132.64327244 452.19761848 133.18920708 C455.6581973 133.95030384 459.11654692 134.72080516 462.57446289 135.49389648 C463.6066243 135.71890335 464.63878571 135.94391022 465.70222473 136.17573547 C466.63987671 136.38739349 467.57752869 136.59905151 468.54359436 136.81712341 C469.36076463 136.99833961 470.17793489 137.1795558 471.0198679 137.36626339 C473 138 473 138 475 140 C475.6328125 142.3828125 475.6328125 142.3828125 476.125 145.125 C476.29257813 146.03507813 476.46015625 146.94515625 476.6328125 147.8828125 C476.75398438 148.58148438 476.87515625 149.28015625 477 150 C481.29998371 148.3894054 485.02311792 146.24502573 488.9140625 143.828125 C496.34212376 141.83477185 505.60599127 145.53495459 512.96948242 147.33837891 C513.89767792 147.56300308 514.82587341 147.78762726 515.78219604 148.01905823 C518.80735022 148.75192082 521.83140935 149.48919678 524.85546875 150.2265625 C526.96960396 150.73964443 529.08380693 151.25244722 531.19807434 151.76498413 C536.73062794 153.10696213 542.26225969 154.45270184 547.79370117 155.79925537 C553.45110301 157.17575687 559.10937795 158.54865957 564.76757812 159.921875 C575.84590438 162.61108301 586.92325908 165.30427008 598 168 C595.6140058 178.7142606 592.12830673 189.0127684 588.6394043 199.40649414 C587.99134251 201.34819166 587.34368428 203.2900239 586.69639587 205.23197937 C585.30604082 209.40034898 583.91284801 213.56775506 582.51740074 217.73442268 C580.29508697 224.37006718 578.07915071 231.00783095 575.8639679 237.64585876 C572.34262923 248.19539658 568.81697103 258.74348501 565.28951246 269.2909779 C559.0174993 288.04537579 552.75245451 306.80210159 546.48946887 325.55951589 C544.30279975 332.10793941 542.11415793 338.65569908 539.92388111 345.20291674 C533.27692873 365.0745334 526.6536564 384.95359655 520.1486603 404.87221515 C519.55010263 406.7048867 518.95079621 408.53731392 518.35065019 410.36946595 C515.06652323 420.40260351 511.92565262 430.44060271 509.125 440.62109375 C500.10901463 472.62217337 500.10901463 472.62217337 489.44921875 479.41040039 C479.40986162 484.39600498 472.62452747 484.31939826 461.91894531 480.8828125 C461.24974564 480.66969421 460.58054596 480.45657593 459.8910675 480.23699951 C457.70168225 479.53830331 455.51492708 478.83173522 453.328125 478.125 C451.79847454 477.63509509 450.26866641 477.1456822 448.7387085 476.65673828 C444.72701191 475.37320781 440.71751259 474.08294371 436.70843506 472.79125977 C432.6233664 471.47645974 428.53619091 470.16824343 424.44921875 468.859375 C401.96017287 461.65339096 401.96017287 461.65339096 397 460 C396.39412154 449.65678909 395.85410333 439.36555659 396 429 C395.15750702 428.95178604 394.31501404 428.90357208 393.44699097 428.85389709 C384.71194999 428.29952133 376.15940623 427.27093926 367.5078125 425.93359375 C366.18267913 425.73276437 364.85747199 425.53242118 363.53219604 425.33253479 C360.09571051 424.81292317 356.66024639 424.28685188 353.22497559 423.75927734 C349.69877137 423.21896029 346.17161845 422.68490802 342.64453125 422.15039062 C335.76197801 421.10690675 328.88109667 420.05322908 322 419 C323.32 406.46 324.64 393.92 326 381 C321.38 382.65 316.76 384.3 312 386 C306.07020864 387.29714186 301.03278551 388.03470095 295 388 C295.12117188 388.74161377 295.24234375 389.48322754 295.3671875 390.24731445 C295.91390156 393.60198346 296.45699279 396.95722908 297 400.3125 C297.19078125 401.47974609 297.3815625 402.64699219 297.578125 403.84960938 C297.75859375 404.96787109 297.9390625 406.08613281 298.125 407.23828125 C298.29257813 408.26993408 298.46015625 409.30158691 298.6328125 410.36450195 C299 413 299 413 299 416 C295.54208122 418.05891691 292.05598714 420.06462716 288.5625 422.0625 C287.58861328 422.64322266 286.61472656 423.22394531 285.61132812 423.82226562 C284.64775391 424.36689453 283.68417969 424.91152344 282.69140625 425.47265625 C281.81685791 425.98062744 280.94230957 426.48859863 280.04125977 427.01196289 C273.13212991 429.25658427 264.66203068 426.4963852 257.64672852 425.25 C256.65376266 425.075896 255.66079681 424.90179199 254.63774109 424.72241211 C251.3842843 424.15114146 248.13157622 423.57573239 244.87890625 423 C242.60972336 422.60010194 240.3405121 422.20036478 238.0712738 421.80078125 C233.33111891 420.96541284 228.59133736 420.12796472 223.85180664 419.2890625 C217.767062 418.2122503 211.68137553 417.1408693 205.5953989 416.07104492 C200.91715581 415.24803337 196.23943716 414.42207266 191.56187248 413.59521484 C189.3168688 413.19875352 187.07169682 412.80324395 184.82635689 412.40869141 C181.6995321 411.85881033 178.57343876 411.30494745 175.44750977 410.75 C174.51506439 410.58685303 173.58261902 410.42370605 172.62191772 410.25561523 C171.77393112 410.10423096 170.92594452 409.95284668 170.05226135 409.796875 C169.31361123 409.66635742 168.57496111 409.53583984 167.81392765 409.40136719 C166 409 166 409 164 408 C163.51342773 406.06982422 163.51342773 406.06982422 163.18359375 403.5546875 C163.05919922 402.64203125 162.93480469 401.729375 162.80664062 400.7890625 C162.62391602 399.34660156 162.62391602 399.34660156 162.4375 397.875 C162.31181641 396.9365625 162.18613281 395.998125 162.05664062 395.03125 C161.81931518 393.25690057 161.58573954 391.48204255 161.35717773 389.70654297 C160.92974496 386.4676368 160.4620219 383.23415333 160 380 C154.72 382.97 149.44 385.94 144 389 C141.4782497 386.4782497 140.17594558 384.80270555 138.51953125 381.76953125 C137.85727539 380.56586914 137.85727539 380.56586914 137.18164062 379.33789062 C136.72982422 378.50451172 136.27800781 377.67113281 135.8125 376.8125 C135.34908203 375.96751953 134.88566406 375.12253906 134.40820312 374.25195312 C133.26749219 372.17044966 132.13162891 370.08645072 131 368 C129.89140625 368.56589844 128.7828125 369.13179687 127.640625 369.71484375 C126.17719097 370.45594175 124.71364333 371.19681544 123.25 371.9375 C122.52039063 372.31068359 121.79078125 372.68386719 121.0390625 373.06835938 C119.97558594 373.60493164 119.97558594 373.60493164 118.890625 374.15234375 C118.24125977 374.48226318 117.59189453 374.81218262 116.92285156 375.15209961 C113.46040427 376.67889995 110.75704873 377.1668752 107.01525879 376.55752563 C106.23302444 376.43413315 105.4507901 376.31074066 104.64485168 376.18360901 C103.79589828 376.0413237 102.94694489 375.89903839 102.07226562 375.75244141 C101.17102463 375.60789017 100.26978363 375.46333893 99.3412323 375.31440735 C96.36160222 374.83448489 93.38397675 374.34314487 90.40625 373.8515625 C88.33657189 373.51557516 86.2667867 373.18024679 84.19689941 372.84555054 C79.85849293 372.1424092 75.52097059 371.43412279 71.18408203 370.72167969 C65.62324763 369.8081816 60.06109563 368.90305407 54.49835968 368.00121498 C49.19639896 367.14143282 43.89501709 366.27810976 38.59375 365.4140625 C37.5806929 365.24911915 36.5676358 365.0841758 35.52388 364.91423416 C32.65818033 364.44685447 29.79289227 363.97703582 26.92773438 363.50634766 C26.07878098 363.36811081 25.22982758 363.22987396 24.35514832 363.08744812 C23.57291397 362.95841599 22.79067963 362.82938385 21.98474121 362.69644165 C21.30780968 362.58544947 20.63087814 362.47445728 19.93343353 362.3601017 C17.93048427 361.98705271 15.97109758 361.51386376 14 361 C14.60744053 352.1604147 16.00880264 343.5297432 17.5625 334.8125 C17.79923957 333.46556704 18.03557026 332.11856215 18.27148438 330.77148438 C18.84365832 327.513596 19.41991133 324.25648673 20 321 C19.13761719 321.49628906 18.27523437 321.99257813 17.38671875 322.50390625 C10.29001267 326.49185202 3.12706998 329.95381445 -4.5 332.8125 C-5.22098877 333.089729 -5.94197754 333.36695801 -6.68481445 333.65258789 C-14.10957007 336.34129761 -21.00714475 337.40142895 -29 339 C-29 363.75 -29 388.5 -29 414 C-51 426 -51 426 -56 425 C-58.62111793 423.81979018 -61.17087997 422.59910007 -63.72998047 421.29736328 C-64.87534775 420.72380348 -64.87534775 420.72380348 -66.04385376 420.13865662 C-68.57112792 418.87142435 -71.09407973 417.59581718 -73.6171875 416.3203125 C-75.3931076 415.42827697 -77.1693275 414.53683809 -78.9458313 413.64596558 C-83.63807693 411.29127506 -88.32686423 408.92978287 -93.01477051 406.56646729 C-101.33667078 402.37248669 -109.66436107 398.19000973 -117.9921875 394.0078125 C-118.88724188 393.5580411 -119.78229626 393.10826969 -120.7044735 392.64486885 C-131.45764048 387.243125 -142.23049581 381.90461683 -153.10984802 376.76069641 C-164.64499418 371.29932309 -176.03144457 365.53715256 -187.4375 359.8125 C-195.213125 355.914375 -202.98875 352.01625 -211 348 C-211 365.82 -211 383.64 -211 402 C-217.27 405.3 -223.54 408.6 -230 412 C-230.99 412.66 -231.98 413.32 -233 414 C-234.99611094 414.44165196 -237.01232848 414.79470269 -239.03417969 415.09741211 C-240.28108582 415.28778549 -241.52799194 415.47815887 -242.81268311 415.67430115 C-244.18238193 415.87553198 -245.55211351 416.07653992 -246.921875 416.27734375 C-248.34231369 416.49090593 -249.76266144 416.70507385 -251.18292236 416.91981506 C-254.17499408 417.37064687 -257.16774447 417.81654078 -260.16113281 418.25854492 C-263.92598961 418.8144989 -267.68955933 419.37859891 -271.45270538 419.94600487 C-288.27855843 422.481969 -305.11454811 424.88985709 -322 427 C-322.08564209 426.10168457 -322.17128418 425.20336914 -322.25952148 424.27783203 C-322.57877492 420.94905989 -322.90157744 417.62067196 -323.22680664 414.29248047 C-323.36690738 412.8512124 -323.50558678 411.40980544 -323.64282227 409.96826172 C-323.8401853 407.8977311 -324.04263361 405.82775175 -324.24609375 403.7578125 C-324.36654053 402.5114502 -324.4869873 401.26508789 -324.61108398 399.98095703 C-324.82414308 397.07859473 -324.82414308 397.07859473 -326 395 C-326.7528125 395.61746094 -327.505625 396.23492188 -328.28125 396.87109375 C-351.60916969 415.63193511 -378.95127035 425.63452051 -409.07421875 422.80517578 C-431.51255087 420.15228787 -450.17894938 408.74845182 -465 392 C-467.19112034 389.08946866 -469.14273627 386.12905184 -471 383 C-469.66306782 391.08532572 -467.82715082 398.96420583 -465.7421875 406.88671875 C-465.43427277 408.06974075 -465.12635803 409.25276276 -464.80911255 410.47163391 C-463.834853 414.21125368 -462.85502245 417.94938684 -461.875 421.6875 C-461.20926514 424.2388357 -460.54389696 426.79026711 -459.87890625 429.34179688 C-458.25684101 435.56231053 -456.63021221 441.78161676 -455 448 C-456.66412445 449.33650491 -458.33157311 450.66886992 -460 452 C-460.53181885 452.43531036 -461.0636377 452.87062073 -461.61157227 453.31912231 C-473.87897129 463.22194261 -486.53543389 467.9102372 -501.5 472.4375 C-503.7837599 473.15270634 -506.06662879 473.87076356 -508.34863281 474.59155273 C-512.97050542 476.04660703 -517.59697645 477.48520007 -522.22851562 478.90917969 C-528.67039629 480.89198697 -535.09546289 482.92465449 -541.515625 484.9765625 C-543.43813923 485.59061314 -545.36066494 486.20462785 -547.28320312 486.81860352 C-548.65037476 487.25524826 -548.65037476 487.25524826 -550.04516602 487.70071411 C-556.69116669 489.81819327 -563.34577729 491.9085307 -570 494 C-573.28015134 490.18716902 -575.03904447 485.76724625 -577.03515625 481.20703125 C-577.42566162 480.3258815 -577.81616699 479.44473175 -578.21850586 478.53688049 C-579.50480537 475.6309212 -580.7836956 472.72176447 -582.0625 469.8125 C-582.96435817 467.7708175 -583.8666261 465.72931596 -584.76928711 463.68798828 C-587.52022324 457.46189166 -590.26111107 451.23140376 -593 445 C-593.79816691 443.18505412 -594.59634354 441.37011251 -595.39453125 439.55517578 C-598.35980411 432.81070738 -601.32212003 426.06494694 -604.27978516 419.31713867 C-609.64486291 407.07718631 -615.0337204 394.84791379 -620.4375 382.625 C-620.83090576 381.73506348 -621.22431152 380.84512695 -621.62963867 379.92822266 C-624.41904947 373.61850121 -627.20940435 367.3091975 -630 361 C-635.14051995 349.37790934 -640.27975314 337.75525785 -645.41101074 326.1290741 C-647.46646901 321.4720999 -649.52345029 316.81580746 -651.58300781 312.16064453 C-653.71519446 307.3409866 -655.84370512 302.51972061 -657.96969604 297.69732666 C-658.77693395 295.86793803 -659.58545214 294.03911377 -660.39529419 292.21087646 C-661.51043415 289.69285598 -662.62101129 287.17287203 -663.73046875 284.65234375 C-664.06382233 283.90247696 -664.3971759 283.15261017 -664.7406311 282.38002014 C-667 277.22815666 -667 277.22815666 -667 275 C-667.98395752 275.40895508 -667.98395752 275.40895508 -668.98779297 275.82617188 C-671.94870259 277.0544166 -674.91180881 278.27727055 -677.875 279.5 C-678.90753906 279.92925781 -679.94007813 280.35851562 -681.00390625 280.80078125 C-682.48310547 281.40986328 -682.48310547 281.40986328 -683.9921875 282.03125 C-684.90339355 282.40830078 -685.81459961 282.78535156 -686.75341797 283.17382812 C-689 284 -689 284 -691 284 C-691.28496338 283.49476807 -691.56992676 282.98953613 -691.86352539 282.46899414 C-698.43889475 270.83364717 -705.17506315 259.30919002 -712.07836914 247.86547852 C-717.67535562 238.57486262 -723.16838546 229.22607696 -728.62329102 219.8515625 C-732.16025219 213.78270112 -735.74587935 207.75267439 -739.4453125 201.78125 C-740.15579942 200.6270765 -740.8660898 199.47278199 -741.57617188 198.31835938 C-742.91143783 196.15571222 -744.25856052 194.00032714 -745.61914062 191.85351562 C-746.50762695 190.41008789 -746.50762695 190.41008789 -747.4140625 188.9375 C-747.9395166 188.10089844 -748.4649707 187.26429688 -749.00634766 186.40234375 C-750.25153798 183.39185904 -750.09069791 182.04883721 -749 179 C-746.69693775 175.81757289 -743.84931032 173.13706425 -741.0625 170.375 C-740.25707764 169.57392822 -739.45165527 168.77285645 -738.62182617 167.94750977 C-731.4351947 161.02485135 -723.79859023 155.94186744 -715.0859375 151.16308594 C-712.53211815 149.73911644 -710.05952128 148.2043896 -707.5793457 146.65698242 C-664.70417806 120.09772077 -612.39702159 99.28245037 -561.3203125 98.76171875 C-560.51794159 98.75197021 -559.71557068 98.74222168 -558.8888855 98.73217773 C-515.02687054 98.30948771 -475.87421882 105.33569686 -443 136.625 C-424.6599429 155.51123435 -414.64534329 179.76492573 -414.8984375 206.12890625 C-415.10948303 212.09500117 -415.55554482 218.04747533 -416 224 C-414.5459375 223.12988281 -414.5459375 223.12988281 -413.0625 222.2421875 C-389.73329853 208.53918419 -368.93316473 205.47189873 -342 206 C-342.33 201.71 -342.66 197.42 -343 193 C-344.18078125 193.3609375 -345.3615625 193.721875 -346.578125 194.09375 C-348.13533005 194.56278767 -349.69262654 195.03152181 -351.25 195.5 C-352.02730469 195.73847656 -352.80460937 195.97695313 -353.60546875 196.22265625 C-354.73662109 196.56103516 -354.73662109 196.56103516 -355.890625 196.90625 C-356.58188477 197.11572266 -357.27314453 197.32519531 -357.98535156 197.54101562 C-360 198 -360 198 -364 198 C-365.14040601 193.83517407 -365.32962164 189.70878386 -365.53515625 185.4140625 C-365.57822403 184.56797928 -365.62129181 183.72189606 -365.66566467 182.85017395 C-365.80295856 180.10866935 -365.93330019 177.3668972 -366.0625 174.625 C-366.12978302 173.23705734 -366.12978302 173.23705734 -366.19842529 171.82107544 C-366.85410782 158.20358924 -367.28439232 144.63503183 -367 131 C-364.50136876 129.58087449 -362.00115719 128.1646616 -359.5 126.75 C-358.80390625 126.35425781 -358.1078125 125.95851563 -357.390625 125.55078125 C-356.69453125 125.15761719 -355.9984375 124.76445312 -355.28125 124.359375 C-354.65283203 124.00327148 -354.02441406 123.64716797 -353.37695312 123.28027344 C-352.59255859 122.8577832 -351.80816406 122.43529297 -351 122 C-350.4593541 121.70288116 -349.91870819 121.40576233 -349.36167908 121.09963989 C-343.56673929 118.04057474 -337.55169976 116.05765637 -331.31640625 114.0859375 C-330.17160797 113.71827271 -329.02680969 113.35060791 -327.84732056 112.97180176 C-324.73456858 111.97373856 -321.6200264 110.98154186 -318.50445175 109.99233246 C-315.8992131 109.16414588 -313.29542076 108.33146463 -310.69163609 107.49872017 C-303.88050979 105.32038549 -297.06650037 103.15121431 -290.25101566 100.98655891 C-285.4140059 99.45008015 -280.57824063 97.90973824 -275.74316406 96.3671875 C-269.14756532 94.26318328 -262.55033321 92.16437543 -255.95162964 90.07012939 C-253.45024669 89.27592819 -250.94920639 88.48064696 -248.44851685 87.68426514 C-244.96047483 86.57439508 -241.47075016 85.46999179 -237.98046875 84.3671875 C-236.95184723 84.03891968 -235.92322571 83.71065186 -234.86343384 83.37243652 C-233.911008 83.07276978 -232.95858215 82.77310303 -231.97729492 82.46435547 C-231.1559758 82.20411591 -230.33465668 81.94387634 -229.4884491 81.67575073 C-226.70515434 80.91993319 -223.84485137 80.47414189 -221 80 C-220.67 84.29 -220.34 88.58 -220 93 C-219.360625 92.28585937 -218.72125 91.57171875 -218.0625 90.8359375 C-214.52317391 87.30408886 -210.34691675 85.03132891 -206 82.625 C-205.2059375 82.16222656 -204.411875 81.69945312 -203.59375 81.22265625 C-197.88093907 78.03300348 -197.88093907 78.03300348 -194.2890625 77.8984375 C-191.13901915 79.41432867 -188.83457642 81.5728986 -186.375 84 C-185.30832558 85.0167792 -184.239271 86.03106671 -183.16796875 87.04296875 C-182.63478027 87.54747559 -182.1015918 88.05198242 -181.55224609 88.57177734 C-179.35079113 90.59733751 -177.03004266 92.45317242 -174.6875 94.3125 C-168.65398983 99.16554079 -163.07590425 104.46266962 -157.4453125 109.76953125 C-154.32224078 112.71032579 -151.13727908 115.56399177 -147.88671875 118.36328125 C-145.56341213 120.37873772 -143.28251535 122.43848462 -141 124.5 C-137.37017859 127.77515184 -133.71361219 131.01521208 -130.02734375 134.2265625 C-126.33039111 137.46050566 -122.66794563 140.73323593 -119 144 C-111.08 140.04 -111.08 140.04 -103 136 C-107.61240542 129.6135925 -112.66125286 123.78957468 -118 118 C-114.02819163 109.13508751 -106.02941842 101.8715611 -99.44604492 94.84033203 C-95.52192741 90.62741045 -91.88150728 86.23663385 -88.27734375 81.74609375 C-85.78173531 78.73680948 -83.16234857 75.86061346 -80.5 73 C-77.02580757 69.26672745 -73.6993129 65.47628889 -70.5 61.5 C-66.8643595 56.98141824 -63.03163598 52.72016671 -59.08374023 48.47827148 C-56.11284372 45.2670095 -53.30038923 41.97372185 -50.5625 38.5625 C-46.69780408 33.75587102 -42.59976823 29.23624227 -38.3515625 24.77026367 C-35.39195967 21.62988965 -32.95164462 18.48157955 -30.5625 14.875 C-26.50227488 9.60885331 -21.08668566 6.8747977 -15.3125 3.8125 C-13.92043335 3.0707251 -13.92043335 3.0707251 -12.50024414 2.31396484 C-4.90755917 -1.50263488 -4.90755917 -1.50263488 0 0 Z M-62 198 C-66.10966963 203.26750225 -67.14640866 208.42041402 -67.1875 214.9375 C-67.20167969 215.95714844 -67.21585938 216.97679687 -67.23046875 218.02734375 C-66.99444914 221.07159667 -66.28252995 223.24737643 -65 226 C-61.23434961 224.49542094 -59.45704323 222.36583433 -57 219.1875 C-52.89992176 214.01635307 -48.55033117 209.18222892 -43.98632812 204.41674805 C-41.48956117 201.7740074 -39.36726768 199.39770111 -38 196 C-44.35855241 192.8207238 -56.22958376 194.02482437 -62 198 Z M-151.94946289 217.8359375 C-153.1984436 219.09277344 -153.1984436 219.09277344 -154.47265625 220.375 C-155.37177734 221.27734375 -156.27089844 222.1796875 -157.19726562 223.109375 C-158.15239736 224.07286352 -159.10747477 225.0364059 -160.0625 226 C-161.02125601 226.9637689 -161.98023744 227.9273136 -162.93945312 228.890625 C-165.29520314 231.25821295 -167.64859739 233.62809556 -170 236 C-167.52707713 237.64861525 -165.56420889 238.66488584 -162.83984375 239.7265625 C-162.04642578 240.0359375 -161.25300781 240.3453125 -160.43554688 240.6640625 C-159.61119141 240.98117187 -158.78683594 241.29828125 -157.9375 241.625 C-157.10927734 241.94984375 -156.28105469 242.2746875 -155.42773438 242.609375 C-151.32811639 244.35333486 -151.32811639 244.35333486 -147 245 C-147.66 235.43 -148.32 225.86 -149 216 C-150.32498332 215.88573464 -150.32498332 215.88573464 -151.94946289 217.8359375 Z M-527 219 C-523.50984626 231.39176284 -519.92001305 243.73695033 -516 256 C-515.01 256 -514.02 256 -513 256 C-509.68992798 248.13857895 -509.04768134 240.48683986 -510 232 C-511.9974169 227.15899823 -514.43207581 223.6721051 -519 221 C-521.6396579 220.16331578 -524.2948814 219.6129002 -527 219 Z M-473 380 C-472 382 -472 382 -472 382 Z " fill="#000000" transform="translate(875,353)"/>
<path d="M0 0 C14.1034212 12.87357741 25.29161094 29.78586427 26.28808594 49.32006836 C27.30641399 82.54723617 11.45310081 110.78462814 -10.73925781 134.42626953 C-12.15170288 135.91447881 -13.56836357 137.39868394 -14.98535156 138.88256836 C-15.88833984 139.86483398 -15.88833984 139.86483398 -16.80957031 140.86694336 C-25.77947589 150.35651601 -37.04208846 157.88769872 -47.98535156 164.88256836 C-47.30253784 172.67220614 -45.26796722 180.09803315 -43.30175781 187.64038086 C-42.92600614 189.09637535 -42.5506745 190.55247828 -42.17573547 192.00868225 C-41.17767934 195.8797505 -40.17344777 199.74919157 -39.16799164 203.61834335 C-38.34091519 206.80483592 -37.51788667 209.9923675 -36.69499207 213.17994213 C-33.02027666 227.41407723 -29.3262063 241.64303832 -25.56738281 255.85522461 C-25.32647415 256.76653137 -25.08556549 257.67783813 -24.83735657 258.61676025 C-23.77450325 262.63253066 -22.70626993 266.64674186 -21.62817383 270.65844727 C-21.44224167 271.35554306 -21.25630951 272.05263885 -21.06474304 272.77085876 C-20.58500451 274.56945623 -20.10153271 276.36705686 -19.61767578 278.16455078 C-18.98535156 280.88256836 -18.98535156 280.88256836 -18.98535156 283.88256836 C-25.60096643 286.05160452 -32.22167426 288.20449921 -38.84619141 290.34619141 C-41.09967964 291.07684625 -43.35197088 291.81120358 -45.60302734 292.54931641 C-48.83677391 293.60894204 -52.07457556 294.65522708 -55.31347656 295.69897461 C-56.32089905 296.03224258 -57.32832153 296.36551056 -58.36627197 296.70887756 C-59.30694519 297.00926437 -60.24761841 297.30965118 -61.21679688 297.61914062 C-62.04286438 297.88783463 -62.86893188 298.15652863 -63.72003174 298.43336487 C-66.22326076 298.92974476 -67.62410285 298.82400603 -69.98535156 297.88256836 C-71.3347168 295.75073242 -71.3347168 295.75073242 -72.54394531 292.89819336 C-73.00502686 291.83366943 -73.4661084 290.76914551 -73.94116211 289.67236328 C-74.43011963 288.50423096 -74.91907715 287.33609863 -75.42285156 286.13256836 C-75.95088107 284.90308819 -76.48061809 283.6743401 -77.01196289 282.44628906 C-78.12387412 279.87416532 -79.2294062 277.29943512 -80.33105469 274.72290039 C-82.87003875 268.80522585 -85.52619455 262.94015971 -88.17285156 257.07006836 C-89.26059615 254.64711605 -90.34789029 252.22396656 -91.43457031 249.80053711 C-91.7148558 249.17579498 -91.9951413 248.55105286 -92.28392029 247.90737915 C-96.02455484 239.56883076 -99.75422945 231.22537607 -103.48535156 222.88256836 C-108.48059973 211.71376607 -113.4787468 200.54628555 -118.48535156 189.38256836 C-123.4919564 178.218851 -128.48999394 167.0513218 -133.48535156 155.88256836 C-138.03518671 145.71009775 -142.58540311 135.53780404 -147.14428711 125.36938477 C-148.19320653 123.02947522 -149.24155962 120.6893117 -150.28930664 118.34887695 C-152.74394671 112.86815443 -155.2055037 107.39077485 -157.6867981 101.92207336 C-158.89420119 99.25979661 -160.09806201 96.59592502 -161.30163574 93.93191528 C-161.87400398 92.66766477 -162.44808956 91.40419007 -163.02404785 90.14157104 C-168.49908405 78.1376574 -168.49908405 78.1376574 -169.98535156 71.88256836 C-170.69667236 72.2513208 -171.40799316 72.62007324 -172.14086914 73 C-175.35463412 74.65872588 -178.57603763 76.30203505 -181.79785156 77.94506836 C-182.91740234 78.52579102 -184.03695312 79.10651367 -185.19042969 79.70483398 C-186.80014648 80.52177734 -186.80014648 80.52177734 -188.44238281 81.35522461 C-189.43214111 81.8631958 -190.42189941 82.37116699 -191.44165039 82.89453125 C-193.98535156 83.88256836 -193.98535156 83.88256836 -196.98535156 82.88256836 C-198.61669922 80.55126953 -198.61669922 80.55126953 -200.39941406 77.42553711 C-200.7267453 76.85873734 -201.05407654 76.29193756 -201.3913269 75.70796204 C-202.47236976 73.83315852 -203.54120264 71.95167574 -204.61035156 70.07006836 C-206.12919299 67.42548176 -207.65454229 64.78467767 -209.18066406 62.14428711 C-209.57195496 61.46562592 -209.96324585 60.78696472 -210.36639404 60.08773804 C-213.1268691 55.31614813 -215.96296736 50.59651087 -218.85253906 45.90209961 C-219.24373932 45.26547897 -219.63493958 44.62885834 -220.03799438 43.97294617 C-221.55769636 41.50284953 -223.0789987 39.03391291 -224.61407471 36.57333374 C-225.67122207 34.87824454 -226.71911466 33.17739423 -227.76660156 31.47631836 C-228.36537109 30.5140332 -228.96414062 29.55174805 -229.58105469 28.56030273 C-230.95495419 25.94053053 -231.58038582 23.79673362 -231.98535156 20.88256836 C-171.1043015 -18.84786738 -62.86957773 -54.75329798 0 0 Z M-60.98535156 69.88256836 C-57.49519782 82.2743312 -53.90536461 94.61951869 -49.98535156 106.88256836 C-48.99535156 106.88256836 -48.00535156 106.88256836 -46.98535156 106.88256836 C-43.67527954 99.02114731 -43.0330329 91.36940822 -43.98535156 82.88256836 C-45.98276846 78.04156659 -48.41742737 74.55467346 -52.98535156 71.88256836 C-55.62500946 71.04588414 -58.28023297 70.49546856 -60.98535156 69.88256836 Z " fill="#FEFEFE" transform="translate(408.9853515625,502.117431640625)"/>
<path d="M0 0 C8.5201522 0.7388863 16.8223009 2.46258582 25.19140625 4.16015625 C26.74789259 4.47294814 28.30444794 4.78539678 29.86106873 5.09751892 C33.93051309 5.91444215 37.99901137 6.73598362 42.06732178 7.55853271 C46.22986021 8.39926753 50.39328821 9.23557281 54.55664062 10.07226562 C62.70529779 11.71054136 70.85295955 13.35370338 79 15 C81.41685415 21.68693773 83.08119161 28.39189641 84.52783203 35.34716797 C84.76074951 36.4458168 84.99366699 37.54446564 85.23364258 38.67640686 C85.99655565 42.28066047 86.75215645 45.88640611 87.5078125 49.4921875 C88.03870863 52.00573243 88.57011893 54.51916881 89.10202026 57.03250122 C90.35464743 62.95647909 91.60287673 68.88136653 92.84869754 74.80677903 C95.2153811 86.06239948 97.59211569 97.31589874 99.96957016 108.5692482 C100.74976359 112.26654412 101.5273153 115.96438812 102.30447388 119.662323 C102.77991191 121.91796028 103.25540335 124.17358631 103.73095703 126.42919922 C103.94706635 127.46090744 104.16317566 128.49261566 104.38583374 129.55558777 C104.58481262 130.49750473 104.7837915 131.43942169 104.98880005 132.40988159 C105.16096605 133.2287277 105.33313206 134.04757381 105.51051521 134.89123344 C106.00507261 137.17110722 106.00507261 137.17110722 107 140 C107.30876068 138.72737305 107.61752136 137.45474609 107.93563843 136.14355469 C110.84852321 124.13759962 113.76170009 112.13171546 116.67516136 100.12590027 C118.17291027 93.95392346 119.67055704 87.78192191 121.16796875 81.60986328 C122.61363539 75.65110494 124.05957246 69.69241228 125.50569534 63.73376465 C126.05677504 61.4628736 126.60775806 59.19195909 127.15864182 56.92102051 C127.93151272 53.73504484 128.70473043 50.54915353 129.47802734 47.36328125 C129.70460526 46.42891739 129.93118317 45.49455353 130.16462708 44.53187561 C131.42298267 39.34939872 132.7002943 34.17226646 134 29 C142.03553808 30.25992099 149.96144134 31.7934227 157.890625 33.6015625 C159.49656525 33.9635524 159.49656525 33.9635524 161.13494873 34.33285522 C164.50735073 35.09376557 167.87868345 35.85929643 171.25 36.625 C173.55592003 37.14614117 175.86190904 37.66697724 178.16796875 38.1875 C183.77944694 39.45481229 189.3900581 40.72590532 195 42 C193.39285446 50.27554928 190.73961391 58.14679284 188.046875 66.1171875 C187.54978247 67.59995046 187.05313933 69.08286414 186.55691528 70.56591797 C185.50521398 73.70669901 184.45091841 76.8465913 183.39447021 79.98577881 C180.90037162 87.39772341 178.42011657 94.8143042 175.93915939 102.23065567 C175.39082289 103.8696137 174.84232261 105.50851694 174.29365921 107.14736557 C170.09032453 119.70287447 165.94348167 132.27507264 161.875 144.875 C155.79751337 163.67939701 149.53911853 182.42235785 143.27639389 201.16563034 C136.6127996 221.10958559 130.00535985 241.06973243 123.52294922 261.07348633 C122.99580923 262.70004584 122.46862936 264.32659243 121.94140625 265.953125 C121.56704437 267.1081678 121.56704437 267.1081678 121.18511963 268.2865448 C117.52991599 279.54855824 113.77395446 290.77729065 110 302 C100.71192933 300.39351461 91.86351842 297.65154793 82.875 294.875 C81.33086451 294.40190179 79.7865946 293.92924205 78.2421875 293.45703125 C74.49322339 292.30973512 70.74612638 291.15652652 67 290 C66.28513596 280.95716085 65.81149259 271.94789534 65.62695312 262.87939453 C65.59915268 261.65149704 65.57135223 260.42359955 65.54270935 259.15849304 C65.48339162 256.5204887 65.42526743 253.88249214 65.36924744 251.2444191 C65.2803847 247.06559594 65.18604916 242.88690651 65.09094238 238.70822144 C64.85581481 228.34081201 64.62797461 217.97324393 64.40106201 207.60565186 C64.22400545 199.52053147 64.045025 191.43546275 63.86051702 183.35050857 C63.7660839 179.20312906 63.67548574 175.0556896 63.587883 170.90816045 C63.51951892 167.72011298 63.44584759 164.53218706 63.37304688 161.34423828 C63.35016098 160.20745132 63.32727509 159.07066437 63.30369568 157.89942932 C63.16811116 152.19335275 62.8338995 146.64782725 62 141 C61.85450132 141.82937387 61.85450132 141.82937387 61.70606327 142.67550278 C59.34567185 156.12966057 56.98367067 169.58353489 54.61993504 183.03710556 C53.47689928 189.54315817 52.33439947 196.04930396 51.19311523 202.55566406 C50.09211122 208.8322752 48.98971151 215.10863973 47.88633537 221.38483429 C47.46519989 223.78177372 47.04457111 226.17880222 46.62445259 228.5759201 C46.03685677 231.92812786 45.44747545 235.28001706 44.85766602 238.63183594 C44.59656288 240.12508392 44.59656288 240.12508392 44.33018494 241.64849854 C44.16894135 242.56272583 44.00769775 243.47695313 43.84156799 244.41888428 C43.70237725 245.21162624 43.56318651 246.00436821 43.41977787 246.82113266 C43.01843735 248.90430048 42.53580112 250.94772532 42 253 C32.47558781 252.49969767 23.20618092 251.4120708 13.80908203 249.84326172 C11.71111396 249.49351746 9.6116172 249.15434881 7.51171875 248.81640625 C-2.70827497 247.14586251 -2.70827497 247.14586251 -5 246 C-4.69365733 241.24691985 -4.35711723 236.49728921 -3.99291992 231.74829102 C-3.87334671 230.13397171 -3.7619178 228.51902699 -3.65893555 226.90356445 C-3.50908445 224.57549505 -3.32965698 222.25127933 -3.14453125 219.92578125 C-3.10471634 219.20787918 -3.06490143 218.48997711 -3.02388 217.75032043 C-2.68429288 213.87946271 -2.09240538 212.10869815 0.45361328 209.11376953 C1.2939209 208.41622559 2.13422852 207.71868164 3 207 C24.52486664 187.07947124 35.79290966 159.9333115 38.25 131.0625 C38.31291686 128.67165927 38.21165231 126.3820505 38 124 C37.91878906 122.98550781 37.83757812 121.97101563 37.75390625 120.92578125 C35.43464033 99.95674818 26.90272988 82.90272988 12 68 C12.02974056 66.25705151 12.13452557 64.51531021 12.26953125 62.77734375 C12.35283691 61.6879248 12.43614258 60.59850586 12.52197266 59.47607422 C12.66578369 57.72447998 12.66578369 57.72447998 12.8125 55.9375 C12.9057959 54.76203613 12.9990918 53.58657227 13.09521484 52.37548828 C13.81842325 43.54556186 14.75449971 34.77150206 16 26 C15.35933594 25.87882813 14.71867187 25.75765625 14.05859375 25.6328125 C13.19363281 25.46523438 12.32867188 25.29765625 11.4375 25.125 C10.59058594 24.96257813 9.74367188 24.80015625 8.87109375 24.6328125 C5.53460964 23.89742417 2.27694701 22.96404622 -1 22 C-1.02903577 18.89585298 -1.0468107 15.79174091 -1.0625 12.6875 C-1.07087891 11.80642578 -1.07925781 10.92535156 -1.08789062 10.01757812 C-1.09111328 9.17001953 -1.09433594 8.32246094 -1.09765625 7.44921875 C-1.10289307 6.66893311 -1.10812988 5.88864746 -1.11352539 5.0847168 C-1 3 -1 3 0 0 Z " fill="#FEFEFE" transform="translate(1248,494)"/>
<path d="M0 0 C1.80241472 25.32591344 3.5312971 50.65235021 5 76 C5.71542969 74.98164062 6.43085937 73.96328125 7.16796875 72.9140625 C12.56606248 65.24231516 17.99574325 57.59600739 23.5 50 C29.22571796 42.0953709 34.87084201 34.13671657 40.48535156 26.15283203 C43.13216782 22.39080338 45.78502975 18.63304322 48.4375 14.875 C48.92162354 14.18849365 49.40574707 13.5019873 49.90454102 12.79467773 C52.92132957 8.51892681 55.95478861 4.25555857 59 0 C67.55388282 7.252205 75.80044471 14.72203293 83.68066406 22.69995117 C86.35005263 25.39036868 89.04766454 27.98570276 91.9375 30.4375 C96.35882638 34.18864638 100.38143461 38.32921968 104.43334961 42.47045898 C107.15018144 45.2300432 109.79713008 47.79219646 113 50 C109.4222726 57.80907808 102.41514565 63.62587712 96.3984375 69.5703125 C94.3801527 71.61489417 92.48500482 73.68836018 90.625 75.875 C87.58569277 79.43286202 84.32636306 82.71441994 81 86 C77.10103905 89.85121613 73.39175698 93.76421734 69.83984375 97.94140625 C67.04233133 101.07153162 64.03375494 103.98685658 61.04663086 106.93383789 C57.82994453 110.12400852 54.83824482 113.42944374 51.90234375 116.875 C47.81018195 121.44612119 43.37227925 125.698879 39 130 C45.51916458 133.46381677 52.24393662 136.1234459 59.14059448 138.74343872 C61.16709491 139.51604883 63.1895561 140.29846885 65.21118164 141.08374023 C71.56989892 143.5507516 77.93385011 145.9907602 84.34796143 148.31057739 C87.06912889 149.30043073 89.77961688 150.31762396 92.48895264 151.33935547 C94.38416719 152.04270714 96.29284961 152.70942953 98.20166016 153.375 C107.07569974 156.74906657 111.1247779 160.97252884 116 169 C135.43598493 195.83818384 161.55837942 205.71167588 193 212 C193 228.83 193 245.66 193 263 C180.99061417 257.31134355 169.03090807 251.5875504 157.15551758 245.63452148 C155.57646656 244.84485436 153.99732653 244.05536521 152.41810608 243.26603699 C148.19946079 241.15685568 143.98203869 239.04523977 139.76486039 236.93312716 C135.33206315 234.71356703 130.89810541 232.49632751 126.46427917 230.27882385 C118.09885359 226.09456743 109.73444821 221.90827591 101.37042302 217.72122103 C90.04651319 212.05259013 78.7209984 206.38716766 67.39558125 200.72154903 C49.59575585 191.81695866 31.79805112 182.90813822 14 174 C13.67 204.69 13.34 235.38 13 267 C6.98314297 268.33707934 1.14362044 269.50632256 -4.9375 270.32421875 C-5.74364746 270.43474075 -6.54979492 270.54526276 -7.38037109 270.65913391 C-9.064027 270.88870942 -10.74795083 271.1163281 -12.43212891 271.34204102 C-15.02215677 271.69048078 -17.61065765 272.04904699 -20.19921875 272.40820312 C-21.84106331 272.63081781 -23.48298768 272.85284489 -25.125 273.07421875 C-25.90093506 273.18247482 -26.67687012 273.2907309 -27.47631836 273.40226746 C-29.3124392 273.6440859 -31.15601 273.82819554 -33 274 C-36.02616714 270.97383286 -35.4002611 261.37560524 -35.79663086 257.14086914 C-35.97142499 255.36355467 -36.16428031 253.58790729 -36.37670898 251.81469727 C-38.0267388 237.95575116 -36.02296542 229.91731717 -29 218 C-27.80434209 215.14787704 -26.90424559 212.30185063 -26.125 209.3125 C-25.93139893 208.60738281 -25.73779785 207.90226563 -25.53833008 207.17578125 C-18.70712447 181.49114613 -21.18521321 155.88617068 -34.3203125 132.64453125 C-37.37767279 127.83096633 -40.93221049 122.28412137 -45.55305481 118.84367371 C-47.77792684 116.00877845 -47.72206952 112.88381559 -47.9831543 109.4074707 C-48.05186737 108.63650055 -48.12058044 107.8655304 -48.19137573 107.07119751 C-48.41520323 104.52365406 -48.61976814 101.97494683 -48.82421875 99.42578125 C-48.97568993 97.65876763 -49.12835973 95.89185638 -49.28218079 94.12504578 C-49.68375549 89.4751878 -50.06901607 84.82411611 -50.45092773 80.17260742 C-50.84353402 75.42608245 -51.25150873 70.68088177 -51.65820312 65.93554688 C-52.45387455 56.62491522 -53.23089736 47.31286405 -54 38 C-63.9 40.475 -63.9 40.475 -74 43 C-74.79589269 38.22464388 -75.1228251 33.91388502 -75.0625 29.125 C-75.05798828 28.43664062 -75.05347656 27.74828125 -75.04882812 27.0390625 C-75.03716336 25.35933665 -75.01923271 23.67965625 -75 22 C-65.36934451 19.12995759 -55.73825651 16.26137176 -46.10660648 13.39466858 C-41.63473876 12.06363988 -37.1630242 10.73210113 -32.69165039 9.39941406 C-28.38023526 8.11442258 -24.06843004 6.83074824 -19.75634575 5.54800415 C-18.10749653 5.05725448 -16.45879083 4.56602234 -14.81022835 4.0743103 C-12.50935648 3.38812366 -10.20799006 2.70362136 -7.90649414 2.01953125 C-7.21813477 1.813815 -6.52977539 1.60809875 -5.82055664 1.39614868 C-1.11405216 0 -1.11405216 0 0 0 Z " fill="#FEFEFE" transform="translate(629,467)"/>
<path d="M0 0 C5.82071622 -0.02464638 11.64140234 -0.0428343 17.4621582 -0.05493164 C19.44393441 -0.05997267 21.42570689 -0.06680538 23.4074707 -0.07543945 C26.24952109 -0.08751515 29.09152247 -0.09323045 31.93359375 -0.09765625 C32.82525742 -0.10281754 33.71692108 -0.10797882 34.63560486 -0.11329651 C36.75740601 -0.11349177 38.8791078 -0.0621003 41 0 C42.48662747 1.48662747 42.40690853 2.94108105 42.72767639 5.00793457 C42.86367752 5.87137482 42.99967865 6.73481506 43.13980103 7.62442017 C43.35882584 9.05653336 43.35882584 9.05653336 43.58227539 10.51757812 C43.81658012 12.01766922 43.81658012 12.01766922 44.05561829 13.54806519 C44.57397637 16.87513493 45.08609702 20.20312856 45.59765625 23.53125 C45.95478382 25.83999168 46.31208075 28.14870717 46.66954041 30.45739746 C47.41968524 35.30937744 48.16654518 40.16185013 48.91137695 45.01464844 C49.86453938 51.22190475 50.82758625 57.42758079 51.79338932 63.63288116 C52.53502065 68.40723113 53.27040093 73.18252856 54.00402641 77.95811462 C54.35632811 80.24528408 54.7107744 82.53212429 55.0674305 84.81861877 C55.56714541 88.02720955 56.05817764 91.23701791 56.54711914 94.44726562 C56.7691803 95.85508804 56.7691803 95.85508804 56.99572754 97.29135132 C59.20664386 111.99964163 59.20664386 111.99964163 56.09375 117.16015625 C55.2378125 118.11792969 54.381875 119.07570313 53.5 120.0625 C37.15539352 139.51953377 30.26555364 165.94865399 32 191 C33.97716051 212.61992813 44.29353564 233.02774201 61 247 C66.44844986 250.98413038 72.16411932 254.73813272 78.3359375 257.484375 C81 259 81 259 82.0234375 261.05078125 C82.13945313 261.79714844 82.25546875 262.54351563 82.375 263.3125 C82.50648438 264.05113281 82.63796875 264.78976562 82.7734375 265.55078125 C83.0349677 268.37801292 83.04094799 271.16230397 83 274 C62.61247726 271.36188696 42.31116866 268.16316447 22 265 C19.26477059 248.36322247 16.62659146 231.71496528 14.140625 215.0390625 C14.021996 214.24436302 13.903367 213.44966354 13.78114319 212.63088226 C12.68330716 205.27506453 11.58924092 197.91869119 10.50048828 190.56152344 C9.89522208 186.47284517 9.28598839 182.38477475 8.67418671 178.29706955 C8.44458005 176.75744857 8.21652214 175.21759579 7.9900589 173.67750931 C7.67842688 171.55868059 7.36178955 169.44065823 7.04394531 167.32275391 C6.86583313 166.12163971 6.68772095 164.92052551 6.50421143 163.68301392 C6.27819844 161.09008402 6.27819844 161.09008402 5 160 C2.81248309 165.60082743 0.62540925 171.20182762 -1.5612793 176.80297852 C-2.30302373 178.702764 -3.0448828 180.60250473 -3.78686523 182.50219727 C-4.50771502 184.34782548 -5.22834894 186.19353803 -5.94876099 188.03933716 C-6.65437931 189.84652311 -7.36081363 191.65339067 -8.06808472 193.45993042 C-9.59387278 197.3630048 -11.1090903 201.26799149 -12.56494141 205.19775391 C-13.00370605 206.37644043 -13.4424707 207.55512695 -13.89453125 208.76953125 C-14.2603833 209.77218018 -14.62623535 210.7748291 -15.00317383 211.80786133 C-16 214 -16 214 -18 215 C-25.9525227 198.65866544 -33.79026297 182.27892686 -41.35546875 165.75390625 C-42.97912769 162.20772326 -44.62115926 158.67236319 -46.30078125 155.15234375 C-46.63601807 154.44770996 -46.97125488 153.74307617 -47.31665039 153.01708984 C-48.17031539 151.22937288 -49.03015475 149.44460765 -49.890625 147.66015625 C-51 145 -51 145 -51 142 C-51.66 142 -52.32 142 -53 142 C-53.04354614 142.74728363 -53.08709229 143.49456726 -53.13195801 144.26449585 C-53.74298592 153.42860594 -55.02097091 162.41833634 -56.46875 171.4765625 C-56.71191961 173.02015429 -56.95471028 174.56380582 -57.19714355 176.10751343 C-57.70167584 179.31323267 -58.20958239 182.51839143 -58.72021484 185.72314453 C-59.37448781 189.83012023 -60.0218794 193.93814427 -60.66701508 198.0465641 C-61.16594055 201.22098376 -61.6675433 204.39497549 -62.1700592 207.56882858 C-62.40989573 209.08460078 -62.64910777 210.60047194 -62.88768005 212.11644363 C-63.22005444 214.22469787 -63.55581446 216.33238444 -63.89257812 218.43994141 C-64.08275513 219.63761139 -64.27293213 220.83528137 -64.46887207 222.06924438 C-65 225 -65 225 -66 228 C-106.04591862 221.66225392 -106.04591862 221.66225392 -123 218 C-120.16979391 172.83545251 -120.16979391 172.83545251 -111.28393555 163.32202148 C-108.64207839 161.00538515 -105.8858334 159.00784918 -103 157 C-100.76150879 154.71123869 -100.76150879 154.71123869 -98.9375 152.4375 C-96.7276899 149.83740006 -94.46471395 147.36612539 -92 145 C-93.39718243 141.75172817 -94.98573105 139.88620545 -97.6875 137.625 C-98.33074219 137.08101562 -98.97398437 136.53703125 -99.63671875 135.9765625 C-101.83383089 134.04493224 -101.83383089 134.04493224 -103.79486084 132.88576984 C-105.94274176 131.40940932 -107.45877379 130.11100297 -109 128 C-109.54493243 124.16316988 -108.79575127 120.64902221 -108.06640625 116.86987305 C-107.88371689 115.75869614 -107.70102753 114.64751923 -107.51280212 113.50267029 C-106.89964063 109.83164948 -106.23167559 106.1729074 -105.5625 102.51171875 C-105.1256306 99.96734188 -104.69208009 97.42239309 -104.26171875 94.87690735 C-103.3526326 89.54568052 -102.42026527 84.21942921 -101.46533203 78.89624023 C-100.1172196 71.38119342 -98.8179237 63.85832487 -97.5290966 56.33291566 C-95.70737187 45.71081234 -93.86186247 35.09277398 -91.96875 24.4831543 C-91.78368393 23.43019165 -91.59861786 22.377229 -91.40794373 21.2923584 C-91.23658401 20.34044113 -91.0652243 19.38852386 -90.88867188 18.40776062 C-90.7403894 17.57580012 -90.59210693 16.74383963 -90.43933105 15.88666821 C-90 14 -90 14 -89 13 C-87.18944975 12.90623947 -85.37522799 12.8825589 -83.56225586 12.88647461 C-81.82056374 12.88658791 -81.82056374 12.88658791 -80.04368591 12.88670349 C-78.14840904 12.89444542 -78.14840904 12.89444542 -76.21484375 12.90234375 C-74.28591026 12.90446617 -74.28591026 12.90446617 -72.31800842 12.90663147 C-68.89356557 12.91045582 -65.46916491 12.92028538 -62.04473877 12.93133545 C-58.55261811 12.94155136 -55.06049066 12.94612947 -51.56835938 12.95117188 C-44.71222222 12.96190773 -37.85611313 12.97898316 -31 13 C-27.54492933 29.9887513 -24.29244062 47.00652293 -21.1875 64.0625 C-20.77688225 66.30927944 -20.36607558 68.55602436 -19.95507812 70.80273438 C-18.9678897 76.20142983 -17.98297355 81.6005356 -17 87 C-15.34583774 82.42669676 -14.32145552 77.87887097 -13.50366211 73.09863281 C-13.36842636 72.33043716 -13.23319061 71.56224152 -13.09385681 70.77076721 C-12.65087017 68.24892687 -12.21420003 65.72603381 -11.77734375 63.203125 C-11.4692028 61.44520647 -11.16056607 59.68737479 -10.85145569 57.92962646 C-10.0408571 53.31480847 -9.23518167 48.69914689 -8.43109131 44.08319092 C-7.14146032 36.68076965 -5.84742169 29.27913139 -4.54754829 21.87850189 C-4.09445858 19.29196949 -3.64536049 16.70476499 -3.19651794 14.11749268 C-2.92015869 12.53956246 -2.64364246 10.96165972 -2.36694336 9.38378906 C-2.24277039 8.66169754 -2.11859741 7.93960602 -1.99066162 7.19563293 C-1.11374863 2.22749727 -1.11374863 2.22749727 0 0 Z " fill="#FEFEFE" transform="translate(1062,465)"/>
<path d="M0 0 C1.2674707 0.00902344 2.53494141 0.01804687 3.84082031 0.02734375 C28.95700653 0.48972304 49.83759311 10.15553935 67.515625 27.96484375 C68.6875 29.4375 68.6875 29.4375 69.6875 32.4375 C69.07044189 33.09214233 69.07044189 33.09214233 68.44091797 33.76000977 C61.15382374 41.49257233 53.87066388 49.22857603 46.625 57 C37.29236566 67.00966105 27.93452008 76.99550491 18.54663086 86.95336914 C12.93120071 92.91176723 7.32158625 98.87554853 1.75 104.875 C1.24766846 105.41278076 0.74533691 105.95056152 0.2277832 106.50463867 C-2.34081909 109.25555677 -2.34081909 109.25555677 -4.3125 112.4375 C18.36531841 108.86874027 33.60753942 103.441203 49.6875 86.4375 C53.50312395 87.73573475 55.75840879 89.18716858 58.5 92.125 C61.67567777 95.42486629 64.94768064 98.46881412 68.41796875 101.453125 C71.2400052 103.92058544 73.99471511 106.45869299 76.75 109 C80.98826869 112.90499631 85.27648725 116.72823927 89.6875 120.4375 C69.15991851 146.83010477 34.32781994 159.39369981 2.515625 164.99609375 C-25.4846881 168.22470128 -50.05517662 162.29965685 -72.64453125 145.7265625 C-88.07958805 133.24456391 -95.87369471 114.27947674 -98.0625 95 C-98.16582314 93.48039387 -98.25054841 91.95935429 -98.3125 90.4375 C-98.35246094 89.74011719 -98.39242187 89.04273438 -98.43359375 88.32421875 C-99.10717717 66.65068162 -90.43335477 46.70298861 -75.99609375 30.90234375 C-56.24288429 10.40722971 -28.27637367 -0.24317225 0 0 Z M-34.3125 60.4375 C-38.42216963 65.70500225 -39.45890866 70.85791402 -39.5 77.375 C-39.51417969 78.39464844 -39.52835938 79.41429687 -39.54296875 80.46484375 C-39.30694914 83.50909667 -38.59502995 85.68487643 -37.3125 88.4375 C-33.54684961 86.93292094 -31.76954323 84.80333433 -29.3125 81.625 C-25.21242176 76.45385307 -20.86283117 71.61972892 -16.29882812 66.85424805 C-13.80206117 64.2115074 -11.67976768 61.83520111 -10.3125 58.4375 C-16.67105241 55.2582238 -28.54208376 56.46232437 -34.3125 60.4375 Z " fill="#FEFEFE" transform="translate(847.3125,490.5625)"/>
<path d="M0 0 C13.24449722 10.96541166 21.25555533 26.98102758 23 44 C24.81072081 71.21568255 14.7939114 94.65521319 -3 115 C-16.94625698 130.87998169 -37.99098417 142.32385156 -59 145 C-79.70360185 146.26986207 -98.24447077 143.6870271 -114.4375 129.5 C-127.82733733 116.6725791 -136.13002091 101.24136439 -137.203125 82.44140625 C-137.53760197 54.76343677 -126.53704615 31.76475131 -107.4375 12 C-78.94836891 -16.43461513 -33.54002887 -24.95297329 0 0 Z " fill="#FEFEFE" transform="translate(565,592)"/>
<path d="M0 0 C14.45045908 11.11730115 22.82585858 25.23895602 25.53125 43.2265625 C28.25246174 65.13231702 20.81967357 85.49743741 8 103 C5.14597886 106.48984159 2.14285228 109.77000763 -1 113 C-1.58394531 113.63421875 -2.16789062 114.2684375 -2.76953125 114.921875 C-16.965301 129.94877881 -38.40406091 138.9701401 -58.83984375 140.23828125 C-75.82817865 140.69703449 -92.19027846 137.08967777 -105.3125 125.625 C-106.89338844 124.10219532 -108.45731682 122.56149639 -110 121 C-110.63679688 120.38511719 -111.27359375 119.77023437 -111.9296875 119.13671875 C-123.98403144 106.62698848 -127.53204773 90.08484969 -127.41772461 73.28076172 C-126.74203154 48.37543539 -112.93479502 27.20972946 -95.375 10.4375 C-69.60649957 -12.13490735 -29.48162673 -19.90304228 0 0 Z " fill="#FEFEFE" transform="translate(1241,571)"/>
<path d="M0 0 C6.23930939 5.478418 11.39967234 12.81655857 12.22045898 21.27075195 C12.6926957 31.58508068 13.07712609 41.72215649 8 51 C7.525625 51.89460937 7.05125 52.78921875 6.5625 53.7109375 C0.18675271 64.65392683 -8.85354713 72.4530111 -19 79.75 C-19.74233887 80.28810303 -20.48467773 80.82620605 -21.24951172 81.38061523 C-21.95092285 81.86860596 -22.65233398 82.35659668 -23.375 82.859375 C-24.00148438 83.29733398 -24.62796875 83.73529297 -25.2734375 84.18652344 C-27 85 -27 85 -30 84 C-31.04170227 81.70526123 -31.04170227 81.70526123 -31.98950195 78.62011719 C-32.3503035 77.46670837 -32.71110504 76.31329956 -33.08283997 75.12493896 C-33.46413559 73.86167786 -33.84543121 72.59841675 -34.23828125 71.296875 C-34.64459921 69.98066663 -35.05193998 68.66477362 -35.46025085 67.34918213 C-36.53916138 63.86213638 -37.60289507 60.37062903 -38.66394043 56.87811279 C-39.72112846 53.40917105 -40.79422049 49.94516087 -41.86523438 46.48046875 C-45.53021161 34.6013206 -49.13841226 22.70418358 -52.60546875 10.765625 C-52.97893181 9.49667389 -52.97893181 9.49667389 -53.35993958 8.2020874 C-54.38033183 4.63767062 -55 1.73607848 -55 -2 C-36.82649679 -9.56988528 -16.77160476 -13.17768945 0 0 Z M-31 17 C-27.50984626 29.39176284 -23.92001305 41.73695033 -20 54 C-19.01 54 -18.02 54 -17 54 C-13.68992798 46.13857895 -13.04768134 38.48683986 -14 30 C-15.9974169 25.15899823 -18.43207581 21.6721051 -23 19 C-25.6396579 18.16331578 -28.2948814 17.6129002 -31 17 Z " fill="#000000" transform="translate(379,555)"/>
<path d="M0 0 C5.82071622 -0.02464638 11.64140234 -0.0428343 17.4621582 -0.05493164 C19.44393441 -0.05997267 21.42570689 -0.06680538 23.4074707 -0.07543945 C26.24952109 -0.08751515 29.09152247 -0.09323045 31.93359375 -0.09765625 C32.82525742 -0.10281754 33.71692108 -0.10797882 34.63560486 -0.11329651 C36.75740601 -0.11349177 38.8791078 -0.0621003 41 0 C42.48662747 1.48662747 42.40690853 2.94108105 42.72767639 5.00793457 C42.86367752 5.87137482 42.99967865 6.73481506 43.13980103 7.62442017 C43.28581757 8.57916229 43.43183411 9.53390442 43.58227539 10.51757812 C43.73847855 11.51763885 43.8946817 12.51769958 44.05561829 13.54806519 C44.57397637 16.87513493 45.08609702 20.20312856 45.59765625 23.53125 C45.95478382 25.83999168 46.31208075 28.14870717 46.66954041 30.45739746 C47.41968524 35.30937744 48.16654518 40.16185013 48.91137695 45.01464844 C49.86453938 51.22190475 50.82758625 57.42758079 51.79338932 63.63288116 C52.53502065 68.40723113 53.27040093 73.18252856 54.00402641 77.95811462 C54.35632811 80.24528408 54.7107744 82.53212429 55.0674305 84.81861877 C55.56714541 88.02720955 56.05817764 91.23701791 56.54711914 94.44726562 C56.7691803 95.85508804 56.7691803 95.85508804 56.99572754 97.29135132 C59.20664386 111.99964163 59.20664386 111.99964163 56.09375 117.16015625 C55.2378125 118.11792969 54.381875 119.07570313 53.5 120.0625 C37.15539352 139.51953377 30.26555364 165.94865399 32 191 C33.97716051 212.61992813 44.29353564 233.02774201 61 247 C66.44844986 250.98413038 72.16411932 254.73813272 78.3359375 257.484375 C81 259 81 259 82.0234375 261.05078125 C82.13945313 261.79714844 82.25546875 262.54351563 82.375 263.3125 C82.50648437 264.05113281 82.63796875 264.78976562 82.7734375 265.55078125 C83.03295199 268.35622235 83 271.1825814 83 274 C79.04 273.34 75.08 272.68 71 272 C71 271.34 71 270.68 71 270 C70.14535156 269.74863281 69.29070312 269.49726562 68.41015625 269.23828125 C52.55818379 263.48218128 38.80116221 249.67850259 31 235 C30.46890625 234.00613281 29.9378125 233.01226563 29.390625 231.98828125 C18.27616804 209.62181217 17.71028078 184.71239041 25.45703125 161.16796875 C29.70570478 149.21174773 36.21419002 135.91784162 45.15036011 126.80780029 C47.55548752 123.15675585 47.15007304 120.63193929 46.45361328 116.52441406 C46.29402476 115.41619482 46.29402476 115.41619482 46.13121223 114.28558731 C45.77555809 111.8533244 45.38775401 109.42733284 45 107 C44.75186714 105.33426719 44.50594417 103.66820381 44.262146 102.00183105 C43.59677364 97.49830758 42.9011389 93.00000728 42.19579697 88.50258636 C41.73047782 85.53468833 41.26930422 82.56617031 40.80911255 79.59747314 C39.66832175 72.24313569 38.52133508 64.88976834 37.37329102 57.53656006 C36.39635157 51.27856173 35.42237644 45.02011749 34.45267105 38.76099396 C33.99916616 35.8417964 33.5412552 32.92331162 33.08322144 30.00482178 C32.80638901 28.22037278 32.52977585 26.43588974 32.25341797 24.65136719 C32.06176559 23.44201759 32.06176559 23.44201759 31.86624146 22.20823669 C31.27895408 18.38528409 31 14.88961247 31 11 C20.11 11 9.22 11 -2 11 C-1 2 -1 2 0 0 Z " fill="#E8E8E8" transform="translate(1062,465)"/>
<path d="M0 0 C14.1034212 12.87357741 25.29161094 29.78586427 26.28808594 49.32006836 C27.15751506 77.6887922 15.67217303 103.13054531 -1.98535156 124.88256836 C-2.31535156 123.89256836 -2.64535156 122.90256836 -2.98535156 121.88256836 C-2.01660156 119.96459961 -2.01660156 119.96459961 -0.48535156 117.69506836 C7.9726428 104.16227737 14.31368599 87.94629107 15.01464844 71.88256836 C15.06621094 71.07045898 15.11777344 70.25834961 15.17089844 69.42163086 C15.87961289 49.28232842 7.59131948 30.55507875 -5.90722656 15.87084961 C-32.50191923 -9.57407251 -66.68036163 -15.13696397 -102.24986267 -14.55302429 C-144.80458451 -13.54300774 -185.56805009 1.57185139 -222.98535156 20.88256836 C-224.0771875 21.40979492 -225.16902344 21.93702148 -226.29394531 22.48022461 C-229.04575164 23.74273696 -229.04575164 23.74273696 -230.98535156 25.88256836 C-231.31535156 24.23256836 -231.64535156 22.58256836 -231.98535156 20.88256836 C-171.1043015 -18.84786738 -62.86957773 -54.75329798 0 0 Z " fill="#E7E7E7" transform="translate(408.9853515625,502.117431640625)"/>
<path d="M0 0 C-2.11274421 1.07832903 -4.22588905 2.0980689 -6.40234375 3.04296875 C-12.49863362 5.79522288 -15.65825834 8.17890162 -19 14 C-20.8861146 19.65834379 -20.91147069 25.73654939 -18.5 31.25 C-15.30403874 36.82881577 -10.4303447 40.02786212 -4.5625 42.375 C3.77142509 43.83709212 10.53923201 43.33364741 18 39 C23.26374222 34.95993217 25.32346447 31.01518711 26.4375 24.5 C26.65269489 22.66971081 26.84999618 20.83678148 27 19 C33.15630632 26.27563474 32.71315468 34.94200942 32 44 C30.1420046 53.8012375 24.39037619 61.08488466 16.40234375 66.88671875 C6.97578022 72.75877114 -3.58124274 75.67390495 -14.671875 73.46875 C-26.39949109 70.48825088 -35.7532647 65.52548466 -42.375 55.0625 C-47.38889167 45.98844606 -48.88172942 35.93047667 -46.125 25.77734375 C-41.9261913 14.85215401 -35.49627059 8.08958136 -25 3 C-16.86572241 -0.60465479 -8.72959018 -0.31426525 0 0 Z " fill="#010101" transform="translate(1202,576)"/>
<path d="M0 0 C1.89492188 0.01353516 1.89492188 0.01353516 3.828125 0.02734375 C4.79234375 0.03894531 5.7565625 0.05054688 6.75 0.0625 C6.17121094 0.34609375 5.59242188 0.6296875 4.99609375 0.921875 C-2.00049746 4.47492654 -8.6364972 8.2219916 -11.25 16.0625 C-11.90323084 24.06457779 -11.28022754 29.31927775 -6.125 35.6875 C0.32211609 41.01337851 6.4726114 42.77708251 14.82421875 42.4375 C22.25789818 41.48471866 27.63477989 38.29360236 32.375 32.5 C34.90368795 28.01732591 35.33646546 23.12618824 35.75 18.0625 C40.30425451 22.0299318 41.36806205 27.76764859 42.04296875 33.58984375 C42.3781722 43.69383333 39.16671415 52.30372798 32.75 60.0625 C25.61462523 67.62787852 17.56643505 72.62203121 7.0625 73.30078125 C-5.1808898 73.61825519 -15.54246311 72.27590254 -25.21484375 64.04296875 C-33.93686108 55.55532424 -37.48311277 47.91065644 -37.8125 35.75 C-37.7938451 25.6993996 -34.36079315 18.17014887 -27.625 10.6875 C-19.7444614 3.4002838 -10.55327649 -0.09771552 0 0 Z " fill="#010101" transform="translate(514.25,595.9375)"/>
<path d="M0 0 C9.23170077 2.96412446 18.23810566 6.49327713 27.26000977 10.03491211 C28.6576935 10.58322498 30.05539882 11.13148283 31.453125 11.6796875 C32.50559669 12.09309135 32.50559669 12.09309135 33.57933044 12.5148468 C37.8148416 14.17091138 42.06694006 15.76803332 46.34342957 17.31510925 C49.06559327 18.30420756 51.77723764 19.32034768 54.48794556 20.34036255 C56.3838349 21.04262183 58.29280299 21.70925099 60.2019043 22.37475586 C69.07559166 25.74953219 73.12474008 29.97246655 78 38 C97.43598493 64.83818384 123.55837942 74.71167588 155 81 C155 97.83 155 114.66 155 132 C149.555 129.525 149.555 129.525 144 127 C144 115.45 144 103.9 144 92 C138.39 91.01 132.78 90.02 127 89 C110.33826183 84.47937337 96.3683482 77.97611747 83 67 C82.29746094 66.46117187 81.59492187 65.92234375 80.87109375 65.3671875 C73.58397237 59.50804748 66.16852493 51.03251114 62.453125 42.41015625 C59.41114276 36.97545066 53.00991891 35.52920467 47.5 33.4375 C46.23235982 32.93706641 44.9655299 32.43457614 43.69946289 31.93017578 C40.23218082 30.55620016 36.75381122 29.21268987 33.27227783 27.87530518 C29.24782465 26.32504374 25.23203608 24.75255143 21.21484375 23.18359375 C16.37471873 21.29445157 11.5331815 19.40941473 6.68359375 17.54467773 C5.93477432 17.25621475 5.1859549 16.96775177 4.41444397 16.67054749 C3.01066669 16.13022585 1.60627533 15.5914958 0.20115662 15.05467224 C-2.94843234 13.84141098 -6.01819885 12.58571404 -9 11 C-6.96705221 6.35912929 -3.59117537 3.45816888 0 0 Z " fill="#E9E9E9" transform="translate(667,598)"/>
<path d="M0 0 C3.29829687 2.01443213 6.19494907 4.02781555 8.625 7.0625 C8.24741359 10.25221771 7.12305446 11.95315909 4.9296875 14.234375 C4.1087561 15.100625 4.1087561 15.100625 3.27124023 15.984375 C2.68673096 16.58765625 2.10222168 17.1909375 1.5 17.8125 C0.30004059 19.07742279 -0.89918553 20.34304163 -2.09765625 21.609375 C-2.6714502 22.21201172 -3.24524414 22.81464844 -3.83642578 23.43554688 C-7.73996577 27.56331433 -11.39358551 31.9089685 -15.07421875 36.234375 C-20.89588393 43.06677228 -26.80541501 49.78290169 -32.90234375 56.37109375 C-35.05747902 58.7168887 -37.16562693 61.09149116 -39.25 63.5 C-41.8415935 66.49126093 -44.53399624 69.30758726 -47.375 72.0625 C-57.19806578 64.24770545 -63.35859126 55.63144784 -65.375 43.0625 C-66.54804324 29.57250273 -63.02646006 19.44225113 -55.5625 8.375 C-40.8154584 -7.21472969 -18.63391535 -10.71382323 0 0 Z M-44.375 20.0625 C-48.48466963 25.33000225 -49.52140866 30.48291402 -49.5625 37 C-49.57667969 38.01964844 -49.59085938 39.03929687 -49.60546875 40.08984375 C-49.36944914 43.13409667 -48.65752995 45.30987643 -47.375 48.0625 C-43.60934961 46.55792094 -41.83204323 44.42833433 -39.375 41.25 C-35.27492176 36.07885307 -30.92533117 31.24472892 -26.36132812 26.47924805 C-23.86456117 23.8365074 -21.74226768 21.46020111 -20.375 18.0625 C-26.73355241 14.8832238 -38.60458376 16.08732437 -44.375 20.0625 Z " fill="#010101" transform="translate(857.375,530.9375)"/>
<path d="M0 0 C8.5201522 0.7388863 16.8223009 2.46258582 25.19140625 4.16015625 C26.74789259 4.47294814 28.30444794 4.78539678 29.86106873 5.09751892 C33.93051309 5.91444215 37.99901137 6.73598362 42.06732178 7.55853271 C46.22986021 8.39926753 50.39328821 9.23557281 54.55664062 10.07226562 C62.70529779 11.71054136 70.85295955 13.35370338 79 15 C81.41386423 21.8386401 83.17845181 28.66271057 84.73071289 35.74267578 C84.98462799 36.8836673 85.23854309 38.02465881 85.50015259 39.20022583 C87.8147484 49.63627894 90.08310983 60.08282524 92.33605289 70.5323658 C93.9990114 78.24344839 95.68568506 85.94850538 97.40415961 93.64741147 C98.61469789 99.08013913 99.79775042 104.51841798 100.9607181 109.96152484 C101.65471554 113.20598608 102.36413325 116.44573467 103.09617805 119.68185806 C103.90904311 123.28696594 104.67655577 126.89898393 105.43383789 130.51611328 C105.80977837 132.1122345 105.80977837 132.1122345 106.1933136 133.74060059 C107.60421225 140.79962009 107.60421225 140.79962009 105.93130302 144.12316513 C104.40552976 145.97363154 102.84884128 147.47579042 101 149 C100.05125 149.804375 99.1025 150.60875 98.125 151.4375 C97.073125 152.2109375 97.073125 152.2109375 96 153 C92.82822188 140.80466366 90.14605977 128.53747576 87.59375 116.19921875 C87.18334994 114.22730167 86.77265862 112.25544519 86.36169434 110.28364563 C85.28859758 105.13124598 84.21926467 99.97807266 83.15081787 94.82470703 C82.0727802 89.62812666 80.99139013 84.43224424 79.91015625 79.23632812 C78.68812947 73.36332519 77.46636397 67.49027002 76.24743652 61.61662292 C73.85153623 50.07351689 71.4351444 38.5348918 69 27 C62.53050529 25.64797646 56.06076161 24.29715053 49.59082031 22.94726562 C47.39935166 22.48988222 45.2079433 22.03220983 43.01660156 21.57421875 C39.82894249 20.90805352 36.64109083 20.24282059 33.453125 19.578125 C32.4072522 19.35991089 31.36137939 19.14169678 30.28381348 18.91687012 C25.20322305 17.86039635 20.12029899 16.81965057 15.02929688 15.81445312 C14.10187683 15.63130554 13.17445679 15.44815796 12.21893311 15.25946045 C10.48058469 14.91785805 8.74171589 14.57888974 7.0022583 14.24298096 C1.21686308 13.10843154 1.21686308 13.10843154 -1 12 C-1.02712066 10.56260487 -1.04645067 9.12506137 -1.0625 7.6875 C-1.07410156 6.88699219 -1.08570313 6.08648437 -1.09765625 5.26171875 C-1 3 -1 3 0 0 Z " fill="#E9E9E9" transform="translate(1248,494)"/>
<path d="M0 0 C8.03553808 1.25992099 15.96144134 2.7934227 23.890625 4.6015625 C24.96125183 4.8428891 26.03187866 5.0842157 27.13494873 5.33285522 C30.50735073 6.09376557 33.87868345 6.85929643 37.25 7.625 C39.55592003 8.14614117 41.86190904 8.66697724 44.16796875 9.1875 C49.77944694 10.45481229 55.3900581 11.72590532 61 13 C59.39285446 21.27554928 56.73961391 29.14679284 54.046875 37.1171875 C53.54978247 38.59995046 53.05313933 40.08286414 52.55691528 41.56591797 C51.50521398 44.70669901 50.45091841 47.8465913 49.39447021 50.98577881 C46.90037162 58.39772341 44.42011657 65.8143042 41.93915939 73.23065567 C41.39082289 74.8696137 40.84232261 76.50851694 40.29365921 78.14736557 C36.09032453 90.70287447 31.94348167 103.27507264 27.875 115.875 C21.79751337 134.67939701 15.53911853 153.42235785 9.27639389 172.16563034 C2.6127996 192.10958559 -3.99464015 212.06973243 -10.47705078 232.07348633 C-11.00419077 233.70004584 -11.53137064 235.32659243 -12.05859375 236.953125 C-12.30816833 237.72315353 -12.55774292 238.49318207 -12.81488037 239.2865448 C-16.47008401 250.54855824 -20.22604554 261.77729065 -24 273 C-25.98 272.67 -27.96 272.34 -30 272 C-29.44391586 266.37088906 -28.36878973 261.40318694 -26.53833008 256.06323242 C-26.16174287 254.93475104 -26.16174287 254.93475104 -25.77754784 253.78347206 C-24.9485769 251.30504815 -24.10906943 248.83033096 -23.26953125 246.35546875 C-22.68088274 244.60177252 -22.09295068 242.84783567 -21.50569153 241.09367371 C-20.2612651 237.38082715 -19.01238915 233.66952124 -17.75982666 229.95941162 C-15.79959322 224.15272132 -13.84950809 218.34265881 -11.90185547 212.53173828 C-11.58103374 211.57461567 -11.26021202 210.61749306 -10.92966843 209.63136673 C-10.28657201 207.71273581 -9.64350668 205.79409446 -9.00047302 203.8754425 C-8.04622195 201.02923445 -7.09102986 198.18334371 -6.13562012 195.33752441 C-1.89609471 182.70533664 2.28701284 170.05715117 6.375 157.375 C11.66064781 141.00250832 17.09170864 124.6798348 22.54296875 108.36193848 C32.5595652 78.40001765 32.5595652 78.40001765 42.46386719 48.40087891 C43.06563618 46.56751517 43.66943882 44.73481755 44.27539062 42.90283203 C45.09299654 40.42925114 45.90311047 37.95335116 46.7109375 35.4765625 C46.94726898 34.76633942 47.18360046 34.05611633 47.42709351 33.32437134 C48.50277227 29.99641124 49 27.54713267 49 24 C32.5 20.37 16 16.74 -1 13 C-2.12263725 7.38681376 -1.53121516 5.31421733 0 0 Z " fill="#E9E9E9" transform="translate(1382,523)"/>
<path d="M0 0 C4.76465902 4.42693414 8.51223021 9.47120947 12.375 14.6875 C13.00921875 15.53505859 13.6434375 16.38261719 14.296875 17.25585938 C17.56782656 21.64494233 20.79471051 26.06541886 23.9765625 30.51953125 C24.84788818 31.73733276 24.84788818 31.73733276 25.73681641 32.97973633 C27 35 27 35 27 37 C17.42776605 41.85556696 7.84912459 46.69822357 -1.737957 51.52441502 C-6.18922271 53.76571698 -10.63814177 56.01143763 -15.08203125 58.26733398 C-19.36912826 60.44343134 -23.66194847 62.60781786 -27.95902252 64.76414299 C-29.59901296 65.58968975 -31.23688188 66.41946477 -32.87258148 67.25348091 C-35.16059134 68.41920052 -37.45562175 69.56978028 -39.75292969 70.71704102 C-40.76929001 71.24139992 -40.76929001 71.24139992 -41.80618286 71.77635193 C-44.41665645 73.06445008 -46.39275503 74.03900527 -49.33966064 73.84971619 C-51.9932609 72.49167629 -52.8197685 70.67105024 -54 68 C-53.72950816 63.72809431 -50.70281744 60.9912857 -48 57.9375 C-46.98879161 56.77021664 -45.97838584 55.60223754 -44.96875 54.43359375 C-44.21271484 53.56323486 -44.21271484 53.56323486 -43.44140625 52.67529297 C-41.41516386 50.32026667 -39.45619665 47.9133513 -37.5 45.5 C-34.19376057 41.4366968 -30.83188536 37.42696336 -27.4375 33.4375 C-24.25086897 29.69144669 -21.11209061 25.9219404 -18.0625 22.0625 C-14.18961916 17.16704979 -10.12835879 12.44418855 -6.03540039 7.73266602 C-3.862913 5.22273239 -1.84401499 2.76602249 0 0 Z " fill="#FEFEFE" transform="translate(868,386)"/>
<path d="M0 0 C13.24449722 10.96541166 21.25555533 26.98102758 23 44 C24.7850562 70.82993564 15.04908192 93.58538503 -2 114 C-3 111 -3 111 -1.5234375 107.98828125 C-0.812247 106.76013793 -0.09573518 105.53506646 0.625 104.3125 C3.70627584 98.83714904 6.11039342 93.45201932 7.9375 87.4375 C8.13617676 86.78370361 8.33485352 86.12990723 8.53955078 85.45629883 C14.10439887 66.2657202 12.12713968 45.35867265 2.6875 27.77734375 C-6.82045476 12.12883487 -21.1763879 2.43576534 -38.8125 -1.9375 C-60.51620509 -5.88585765 -83.7006177 -1.44020499 -102.08203125 10.8984375 C-104 12 -104 12 -107 12 C-78.07928407 -16.20259431 -33.87837836 -25.20469715 0 0 Z " fill="#E8E8E8" transform="translate(565,592)"/>
<path d="M0 0 C14.45045908 11.11730115 22.82585858 25.23895602 25.53125 43.2265625 C28.26435243 65.22803704 20.74719377 85.3788792 8 103 C5.76891267 105.77455732 3.47325003 108.43927167 1 111 C1 106.94328301 2.88302434 104.1757858 4.75 100.6875 C8.58317732 93.30199202 11.11847975 86.13199429 13 78 C13.19078125 77.2265625 13.3815625 76.453125 13.578125 75.65625 C16.4055228 57.85411572 12.98913315 40.03315088 3 25 C-5.80994004 13.14238695 -19.70155428 4.06881849 -34.375 1.34375 C-55.27962753 -1.39376075 -75.84041947 1.6375809 -94 13 C-96.77329661 15.24288469 -99.37606275 17.56999162 -101.94140625 20.046875 C-104 22 -104 22 -107 24 C-100.85255391 9.63404309 -81.68854033 -0.22772396 -68 -6 C-45.22681497 -13.73207211 -20.48283316 -13.82795794 0 0 Z " fill="#E9E9E9" transform="translate(1241,571)"/>
<path d="M0 0 C1.02814316 0.00222061 2.05628632 0.00444122 3.11558533 0.00672913 C4.27671341 0.00680466 5.43784149 0.00688019 6.63415527 0.00695801 C8.52943214 0.01469994 8.52943214 0.01469994 10.46299744 0.02259827 C12.39193092 0.02472069 12.39193092 0.02472069 14.35983276 0.02688599 C17.78427561 0.03071034 21.20867628 0.0405399 24.63310242 0.05158997 C28.12522308 0.06180587 31.61735053 0.06638399 35.10948181 0.07142639 C41.96561897 0.08216225 48.82172806 0.09923767 55.67784119 0.12025452 C59.11161541 17.00502657 62.34539024 33.91806622 65.42784119 50.87025452 C66.02542262 54.14608292 66.6235932 57.42180301 67.22209167 60.69746399 C67.58892191 62.70625471 67.95512888 64.71515939 68.32060242 66.72419739 C68.4845752 67.62414429 68.64854797 68.52409119 68.81748962 69.4513092 C68.96007202 70.23528076 69.10265442 71.01925232 69.2495575 71.82698059 C69.55810734 73.47913156 69.93814365 75.1184946 70.36222839 76.74482727 C70.46638062 77.52871826 70.57053284 78.31260925 70.67784119 79.12025452 C68.58799744 81.79603577 68.58799744 81.79603577 65.74034119 84.43275452 C64.33461853 85.75726624 64.33461853 85.75726624 62.90049744 87.10853577 C62.16702087 87.77240295 61.43354431 88.43627014 60.67784119 89.12025452 C59.68784119 88.62525452 59.68784119 88.62525452 58.67784119 88.12025452 C58.06797586 85.74596976 57.58726882 83.43981646 57.16563416 81.03016663 C56.96037109 79.91804054 56.96037109 79.91804054 56.7509613 78.78344727 C56.29897888 76.32293994 55.85949386 73.86036942 55.42002869 71.39759827 C55.10976798 69.69494926 54.79873346 67.99244109 54.48695374 66.29006958 C53.66709653 61.80171932 52.85780388 57.31152564 52.05064392 52.82087708 C51.08071764 47.4371678 50.09777987 42.05582112 49.11700439 36.6740799 C47.62726843 28.4912448 46.15416623 20.30557102 44.67784119 12.12025452 C20.42284119 11.62525452 20.42284119 11.62525452 -4.32215881 11.12025452 C-3.22684378 0.16710422 -3.22684378 0.16710422 0 0 Z " fill="#E9E9E9" transform="translate(975.3221588134766,477.87974548339844)"/>
<path d="M0 0 C0.33 0 0.66 0 1 0 C1.13986328 0.55358688 1.27972656 1.10717377 1.42382812 1.67753601 C3.27841542 9.01524082 5.13819611 16.35162317 7 23.6875 C7.30568909 24.89241089 7.61137817 26.09732178 7.92633057 27.33874512 C11.72154634 42.2848526 15.56454399 57.21705205 19.4921875 72.12890625 C19.67639503 72.82866262 19.86060257 73.528419 20.05039215 74.24938011 C21.85878537 81.11802835 23.67115033 87.98559669 25.49413872 94.85038662 C26.32932536 97.99855397 27.16024396 101.14784932 27.9921875 104.296875 C28.45055496 106.0134304 28.45055496 106.0134304 28.91818237 107.7646637 C29.33162399 109.33280067 29.33162399 109.33280067 29.75341797 110.93261719 C30.11643509 112.29927521 30.11643509 112.29927521 30.48678589 113.69354248 C31 116 31 116 31 119 C27.04 119.99 23.08 120.98 19 122 C12.73672288 101.20067179 7.12126695 80.22808629 1.53540039 59.23876953 C0.46199482 55.2082627 -0.619874 51.18016568 -1.70874023 47.15380859 C-3.03916419 42.2341238 -4.35572245 37.31093175 -5.66213799 32.38481903 C-6.15850382 30.5223685 -6.65971913 28.66120328 -7.16591072 26.80139923 C-7.8662697 24.22413648 -8.54867224 21.64275529 -9.22680664 19.05957031 C-9.43806686 18.29814224 -9.64932709 17.53671417 -9.86698914 16.75221252 C-11.19317192 11.59278558 -11.19317192 11.59278558 -10.21434021 8.58905029 C-8.81101128 6.75269486 -7.4047732 5.5575138 -5.5 4.25 C-4.8915625 3.82203125 -4.283125 3.3940625 -3.65625 2.953125 C-2 2 -2 2 0 2 C0 1.34 0 0.68 0 0 Z " fill="#E8E8E8" transform="translate(359,667)"/>
<path d="M0 0 C1.2674707 0.00902344 2.53494141 0.01804687 3.84082031 0.02734375 C28.95700653 0.48972304 49.83759311 10.15553935 67.515625 27.96484375 C68.6875 29.4375 68.6875 29.4375 69.6875 32.4375 C66.3875 36.0675 63.0875 39.6975 59.6875 43.4375 C54.6875 38.4375 54.6875 38.4375 52.375 36.0625 C51.488125 35.19625 50.60125 34.33 49.6875 33.4375 C48.94693359 32.66792969 48.94693359 32.66792969 48.19140625 31.8828125 C38.46366997 22.48005628 24.70164285 16.48874334 11.6875 13.4375 C10.77484375 13.21449219 9.8621875 12.99148438 8.921875 12.76171875 C-18.62556605 7.10602904 -46.37241977 14.96562876 -70.3125 28.4375 C-71.64022805 29.11526134 -72.97062182 29.7882041 -74.3125 30.4375 C-57.71268995 9.03248178 -25.9620953 -0.22326983 0 0 Z " fill="#E9E9E9" transform="translate(847.3125,490.5625)"/>
<path d="M0 0 C0.41066684 5.79414985 0.81950758 11.58842494 1.22680664 17.3828125 C1.36500203 19.34541121 1.50365802 21.30797756 1.64282227 23.27050781 C2.39167501 33.83554938 3.11617946 44.39916678 3.66905212 54.97653198 C3.89309403 59.24386481 4.17302822 63.50289495 4.50341797 67.76341248 C5.027482 76.5957462 2.58603307 81.93755273 -2.93359375 88.75390625 C-3.61550781 89.49511719 -4.29742188 90.23632812 -5 91 C-5.33 91 -5.66 91 -6 91 C-6.7503371 86.15985188 -7.21761169 81.40122767 -7.48071289 76.50415039 C-7.53945335 75.43460114 -7.53945335 75.43460114 -7.59938049 74.34344482 C-7.72672358 72.01166301 -7.84972474 69.67967443 -7.97265625 67.34765625 C-8.06063884 65.72096829 -8.14889474 64.09429509 -8.2374115 62.46763611 C-8.46863671 58.20500773 -8.69616851 53.94219007 -8.9229126 49.67932129 C-9.15534768 45.32190027 -9.39130168 40.96466993 -9.62695312 36.60742188 C-10.08806536 28.07179654 -10.54527302 19.53596787 -11 11 C-11.78881561 11.24612534 -12.57763123 11.49225067 -13.39035034 11.74583435 C-42.75284867 20.90094352 -42.75284867 20.90094352 -57.125 25.0625 C-58.4609716 25.45496207 -59.79690887 25.84754099 -61.1328125 26.24023438 C-62.3909375 26.60568359 -63.6490625 26.97113281 -64.9453125 27.34765625 C-66.04375488 27.66742432 -67.14219727 27.98719238 -68.27392578 28.31665039 C-71 29 -71 29 -74 29 C-74 31.64 -74 34.28 -74 37 C-74.33 37 -74.66 37 -75 37 C-75 32.05 -75 27.1 -75 22 C-65.36929771 19.13011386 -55.7382567 16.26137181 -46.10660648 13.39466858 C-41.63473876 12.06363988 -37.1630242 10.73210113 -32.69165039 9.39941406 C-28.38023526 8.11442258 -24.06843004 6.83074824 -19.75634575 5.54800415 C-18.10749653 5.05725448 -16.45879083 4.56602234 -14.81022835 4.0743103 C-12.50935648 3.38812366 -10.20799006 2.70362136 -7.90649414 2.01953125 C-7.21813477 1.813815 -6.52977539 1.60809875 -5.82055664 1.39614868 C-1.11405216 0 -1.11405216 0 0 0 Z " fill="#E7E7E7" transform="translate(629,467)"/>
<path d="M0 0 C0.66 0.33 1.32 0.66 2 1 C1.6390625 1.59683594 1.278125 2.19367187 0.90625 2.80859375 C-4.21475267 12.38202374 -4.86414119 23.50826742 -1.9375 34 C2.13360073 43.76310267 9.88807982 50.55439729 19.265625 55.09765625 C29.56044134 58.86191733 42.59753804 58.49709387 52.6171875 54.22265625 C56.23275105 52.36745725 59.66960712 50.32841222 63 48 C59.32784079 56.72631383 50.10845041 61.89457443 41.95703125 65.80859375 C31.07782189 70.19189475 19.41954262 70.89464272 8.4921875 66.2578125 C-1.82199935 61.05221977 -9.72711632 53.93490661 -14 43 C-16.68767117 34.57622525 -15.74269163 24.73836685 -12.41015625 16.67578125 C-9.18019375 10.54690504 -5.04041739 4.7734794 0 0 Z " fill="#E8E8E8" transform="translate(481,611)"/>
<path d="M0 0 C0.66 0.33 1.32 0.66 2 1 C1.566875 1.85658203 1.566875 1.85658203 1.125 2.73046875 C-3.15037811 12.0680133 -3.50641149 21.86134502 -0.09375 31.59375 C4.22552619 41.09615761 10.82525016 47.91860981 20.46484375 52.05859375 C22.62983975 52.81147922 24.77718017 53.44429504 27 54 C28.2684375 54.3403125 28.2684375 54.3403125 29.5625 54.6875 C39.9813102 56.0232449 48.86090421 54.04173893 57.96875 48.92578125 C58.6390625 48.62027344 59.309375 48.31476562 60 48 C60.66 48.33 61.32 48.66 62 49 C51.80404474 60.22124685 40.52555412 66.21195846 25.33984375 67.0625 C13.92546946 66.84889767 4.37910484 62.43883943 -3.8125 54.6875 C-10.39069042 47.75404146 -13.80976312 40.01762705 -14.0703125 30.40625 C-13.49654335 18.660858 -8.27314021 8.27314021 0 0 Z " fill="#E9E9E9" transform="translate(1158,594)"/>
<path d="M0 0 C8.55388282 7.252205 16.80044471 14.72203293 24.68066406 22.69995117 C27.35005263 25.39036868 30.04766454 27.98570276 32.9375 30.4375 C37.35882638 34.18864638 41.38143461 38.32921968 45.43334961 42.47045898 C48.15018144 45.2300432 50.79713008 47.79219646 54 50 C52.55575365 53.23861303 50.74227753 55.61969163 48.375 58.25 C47.74335937 58.95640625 47.11171875 59.6628125 46.4609375 60.390625 C45.97882812 60.92171875 45.49671875 61.4528125 45 62 C40.23228894 57.97732856 35.6063865 53.83562403 31.0625 49.5625 C30.41990234 48.96050781 29.77730469 48.35851562 29.11523438 47.73828125 C27.075516 45.82690915 25.0376983 43.91352531 23 42 C21.665496 40.74855776 20.33086143 39.49725475 18.99609375 38.24609375 C17.00308294 36.37787417 15.01017588 34.50954545 13.01782227 32.640625 C6.02395438 26.08081184 -0.98703705 19.53938643 -8 13 C-6.71455342 9.43694177 -5.20155344 6.67155767 -2.875 3.6875 C-2.33617187 2.99011719 -1.79734375 2.29273438 -1.2421875 1.57421875 C-0.62730469 0.79498047 -0.62730469 0.79498047 0 0 Z " fill="#E9E9E9" transform="translate(688,467)"/>
<path d="M0 0 C0.66 0.33 1.32 0.66 2 1 C-0.5886813 15.66459236 -3.17898361 30.32889771 -5.77121639 44.9928627 C-6.97479391 51.80158389 -8.17784064 58.61039807 -9.37963867 65.41943359 C-10.5389645 71.98782539 -11.6997683 78.5559544 -12.86148262 85.12392426 C-13.30493924 87.63250794 -13.74789656 90.14117994 -14.19035149 92.64994049 C-14.80910047 96.15781109 -15.42960763 99.66536638 -16.05053711 103.17285156 C-16.2339566 104.21510391 -16.4173761 105.25735626 -16.60635376 106.33119202 C-16.77601151 107.28749008 -16.94566925 108.24378815 -17.12046814 109.22906494 C-17.26703322 110.05867863 -17.41359831 110.88829231 -17.56460476 111.74304581 C-17.97155963 113.85257394 -18.45657322 115.92190586 -19 118 C-21.33294775 118.04241723 -23.66702567 118.04092937 -26 118 C-27 117 -27 117 -27.00195312 115.04570007 C-25.61095252 97.76253674 -22.09917182 80.64234073 -19.15576172 63.57348633 C-18.3802098 59.06380156 -17.62501506 54.55141091 -16.88720703 50.03540039 C-15.99082653 44.54984382 -15.05904225 39.07140252 -14.10205078 33.59610558 C-13.74532732 31.52070973 -13.40086661 29.4431649 -13.06933594 27.36359596 C-9.92885324 7.77606187 -9.92885324 7.77606187 -1.80834961 1.21440125 C-1.21159424 0.81364883 -0.61483887 0.41289642 0 0 Z " fill="#E9E9E9" transform="translate(1309,629)"/>
<path d="M0 0 C0 30.69 0 61.38 0 93 C-9 95 -9 95 -11 94 C-11.23235516 83.22093342 -11.40971006 72.44246852 -11.51812172 61.66140175 C-11.57017268 56.65438615 -11.64069108 51.64909154 -11.75439453 46.64306641 C-11.86356712 41.80589442 -11.92294703 36.97037044 -11.94877243 32.132061 C-11.96715954 30.29236288 -12.00306859 28.45274862 -12.05730057 26.61375809 C-12.48594111 11.46741435 -12.48594111 11.46741435 -8.74237061 6.57928467 C-2.27597817 0 -2.27597817 0 0 0 Z " fill="#EAEAEA" transform="translate(642,641)"/>
<path d="M0 0 C0.66 0 1.32 0 2 0 C2.27465088 1.08732422 2.54930176 2.17464844 2.83227539 3.29492188 C6.29650764 16.82466874 10.31480946 30.15844412 14.4375 43.5 C15.08692152 45.61317895 15.73601124 47.72645989 16.38476562 49.83984375 C20.04791411 61.76338725 20.04791411 61.76338725 23.80908203 73.65625 C24.09034439 74.53462524 24.37160675 75.41300049 24.66139221 76.31799316 C25.18748521 77.95590996 25.7173196 79.59263159 26.25157166 81.22790527 C27.22696032 84.2636071 28 86.7898451 28 90 C26.46875 91.38671875 26.46875 91.38671875 24.5 92.6875 C23.8503125 93.12449219 23.200625 93.56148437 22.53125 94.01171875 C22.0259375 94.33785156 21.520625 94.66398438 21 95 C18.57323333 92.57323333 18.13873607 90.7791033 17.12402344 87.5065918 C16.76314636 86.35325851 16.40226929 85.19992523 16.03045654 84.01164246 C15.64399963 82.75354263 15.25754272 81.49544281 14.859375 80.19921875 C14.45110182 78.88460143 14.04234086 77.5701355 13.63311768 76.2558136 C12.77190997 73.48527485 11.9148683 70.71349401 11.06103516 67.94067383 C9.98661166 64.45172009 8.90491788 60.96508091 7.82047272 57.47923088 C5.18178286 48.99574201 2.57885779 40.50187568 0 32 C-0.33862061 30.88836487 -0.67724121 29.77672974 -1.02612305 28.63140869 C-1.92007833 25.68086556 -2.79932998 22.72646568 -3.671875 19.76953125 C-4.05753632 18.50021004 -4.05753632 18.50021004 -4.45098877 17.20524597 C-5.5553556 13.39609649 -6.25770548 10.78218081 -5 7 C-3.87890625 5.078125 -3.87890625 5.078125 -2.5625 3.25 C-2.13066406 2.63640625 -1.69882812 2.0228125 -1.25390625 1.390625 C-0.63322266 0.70226562 -0.63322266 0.70226562 0 0 Z " fill="#E7E7E7" transform="translate(322,552)"/>
<path d="M0 0 C3.81562395 1.29823475 6.07090879 2.74966858 8.8125 5.6875 C11.98817777 8.98736629 15.26018064 12.03131412 18.73046875 15.015625 C21.5525052 17.48308544 24.30721511 20.02119299 27.0625 22.5625 C31.30076869 26.46749631 35.58898725 30.29073927 40 34 C39.06409496 35.1055189 38.12620142 36.20935453 37.1875 37.3125 C36.66542969 37.92738281 36.14335938 38.54226563 35.60546875 39.17578125 C35.07566406 39.77777344 34.54585937 40.37976563 34 41 C33.54238281 41.59167969 33.08476563 42.18335938 32.61328125 42.79296875 C31 44 31 44 28.58203125 43.9453125 C25.42795408 42.79056715 23.96517791 41.33172754 21.6875 38.875 C18.33393217 35.36699154 14.91919351 32.11030025 11.23828125 28.953125 C7.89310753 26.03412524 4.64166661 23.01437847 1.38745117 19.99462891 C-1.98756689 16.87792323 -5.45252269 13.91587898 -9 11 C-7.59155282 7.78475695 -5.89655214 5.67816132 -3.375 3.25 C-2.74335937 2.63640625 -2.11171875 2.0228125 -1.4609375 1.390625 C-0.73777344 0.70226562 -0.73777344 0.70226562 0 0 Z " fill="#E9E9E9" transform="translate(897,577)"/>
<path d="M0 0 C-0.61518211 9.55317782 -1.96495369 18.93613702 -3.46875 28.37890625 C-3.71185179 29.92393801 -3.95464394 31.46901851 -4.19714355 33.0141449 C-4.7021302 36.22576538 -5.21002411 39.43690729 -5.72021484 42.64770508 C-6.3739438 46.76264141 -7.02147003 50.87852468 -7.66701508 54.99475193 C-8.16600354 58.17345231 -8.66760003 61.35173661 -9.1700592 64.52989006 C-9.40993885 66.04844672 -9.64915099 67.56710898 -9.88768005 69.08587837 C-10.22008465 71.19902529 -10.55584748 73.31161098 -10.89257812 75.42407227 C-11.08275513 76.62475845 -11.27293213 77.82544464 -11.46887207 79.06251526 C-12 82 -12 82 -13 85 C-16.96 84.505 -16.96 84.505 -21 84 C-20.20017806 70.32639096 -18.26667043 56.8964237 -16.14648438 43.3762207 C-15.70973156 40.57737395 -15.29420179 37.77657896 -14.89648438 34.97192383 C-14.40958405 31.53961011 -13.88603385 28.11472823 -13.33677673 24.69185829 C-13.03977456 22.78519386 -12.77867816 20.87304468 -12.51867676 18.96098328 C-11.55927926 13.21633726 -7.8321596 0 0 0 Z " fill="#E9E9E9" transform="translate(1009,608)"/>
<path d="M0 0 C4.76465902 4.42693414 8.51223021 9.47120947 12.375 14.6875 C13.00921875 15.53505859 13.6434375 16.38261719 14.296875 17.25585938 C17.56782656 21.64494233 20.79471051 26.06541886 23.9765625 30.51953125 C24.55744629 31.33139893 25.13833008 32.1432666 25.73681641 32.97973633 C27 35 27 35 27 37 C22.71 38.98 18.42 40.96 14 43 C6.12649751 32.80640587 -1.59870503 22.54225085 -9 12 C-6 8 -3 4 0 0 Z " fill="#E9E9E9" transform="translate(868,386)"/>
<path d="M0 0 C0.66 0.99 1.32 1.98 2 3 C1.443125 3.598125 0.88625 4.19625 0.3125 4.8125 C-6.89091683 14.74153401 -8.93135143 24.93234644 -8 37 C-6.03508219 47.26255264 -1.57499905 55.77036565 6 63 C4.85981998 66.42054006 4.07541482 67.2426201 1 69 C-1.65309334 68.74655409 -2.79506658 68.19301335 -4.74609375 66.35546875 C-13.26325256 55.43855619 -17.01241808 43.80570111 -16 30 C-13.85728088 17.88604467 -8.50621791 8.73839755 0 0 Z " fill="#E9E9E9" transform="translate(801,537)"/>
<path d="M0 0 C8.07526899 -0.44931945 15.08288622 -0.63132888 22 4 C27.11643932 9.2443503 27.33344426 13.98903361 27.39160156 21.08935547 C27.22950201 29.31491938 23.68742822 36.11645357 18 42 C17.34 42 16.68 42 16 42 C16.32355469 41.00097656 16.64710938 40.00195312 16.98046875 38.97265625 C18.08266626 35.09888517 18.30007827 31.47456384 18.3125 27.4375 C18.32925781 26.17808594 18.34601563 24.91867187 18.36328125 23.62109375 C17.86890336 18.69326257 16.3736886 15.3736886 12.875 11.875 C9.67648956 9.78901493 6.49452857 8.54945842 2.890625 7.3203125 C1 6 1 6 0.234375 2.8671875 C0.15703125 1.92101562 0.0796875 0.97484375 0 0 Z " fill="#8F8F8F" transform="translate(346,565)"/>
<path d="M0 0 C0.66 0.33 1.32 0.66 2 1 C1.54149658 2.17393311 1.08299316 3.34786621 0.6105957 4.55737305 C-1.11369758 8.97244412 -2.83755016 13.38768716 -4.5612793 17.80297852 C-5.30302373 19.702764 -6.0448828 21.60250473 -6.78686523 23.50219727 C-7.50771502 25.34782548 -8.22834894 27.19353803 -8.94876099 29.03933716 C-9.65437931 30.84652311 -10.36081363 32.65339067 -11.06808472 34.45993042 C-12.59387278 38.3630048 -14.1090903 42.26799149 -15.56494141 46.19775391 C-16.22308838 47.96578369 -16.22308838 47.96578369 -16.89453125 49.76953125 C-17.2603833 50.77218018 -17.62623535 51.7748291 -18.00317383 52.80786133 C-19 55 -19 55 -21 56 C-24.20079828 50.45699563 -24.20079828 50.45699563 -23.70199585 46.837677 C-22.93921325 44.37640135 -22.0463128 42.01538673 -21.07421875 39.62890625 C-20.73381058 38.74774643 -20.3934024 37.86658661 -20.04267883 36.95872498 C-19.31715085 35.09915115 -18.57923268 33.24437016 -17.82983398 31.39428711 C-16.69739858 28.58703806 -15.61493928 25.76414144 -14.53710938 22.93554688 C-7.72249264 5.49070923 -7.72249264 5.49070923 0 0 Z " fill="#E7E7E7" transform="translate(1065,624)"/>
<path d="M0 0 C0 3 0 3 -1.1875 4.54296875 C-13.09558153 15.34749962 -29.19634017 21.64209357 -45.26953125 21.10546875 C-45.84058594 21.07066406 -46.41164063 21.03585937 -47 21 C-46.08552154 19.91481889 -45.16829593 18.83195262 -44.25 17.75 C-43.73953125 17.14671875 -43.2290625 16.5434375 -42.703125 15.921875 C-41.86007812 14.97054687 -41.86007812 14.97054687 -41 14 C-40.08927734 12.90945313 -40.08927734 12.90945313 -39.16015625 11.796875 C-36.36859318 9.47477914 -34.78464545 9.53619769 -31.1875 9.5 C-20.0179868 8.9471782 -9.39895668 6.21502826 0 0 Z " fill="#E9E9E9" transform="translate(880,592)"/>
<path d="M0 0 C-1.55975022 2.84462642 -2.66354005 4.83062099 -5 7 C-8.20284595 7.85103347 -11.21636744 7.62139816 -14.5 7.375 C-16.17689431 7.29539246 -17.85398264 7.21975438 -19.53125 7.1484375 C-20.69720703 7.08994629 -20.69720703 7.08994629 -21.88671875 7.03027344 C-24.36770258 6.99473254 -26.60911657 7.34348693 -29 8 C-27.5438453 4.16327778 -25.78641047 3.03455804 -22.125 1.3125 C-21.26132812 0.89613281 -20.39765625 0.47976563 -19.5078125 0.05078125 C-13.03534964 -2.66120085 -6.38070379 -3.1903519 0 0 Z " fill="#8D8D8D" transform="translate(844,542)"/>
<path d="M0 0 C1.32 0 2.64 0 4 0 C4.66 2.97 5.32 5.94 6 9 C6.66 9 7.32 9 8 9 C8.66 6.03 9.32 3.06 10 0 C11.32 0 12.64 0 14 0 C14 4.95 14 9.9 14 15 C13.01 15 12.02 15 11 15 C10.67 13.68 10.34 12.36 10 11 C9.34 12.32 8.68 13.64 8 15 C7.01 14.67 6.02 14.34 5 14 C4.67 13.01 4.34 12.02 4 11 C3.67 12.32 3.34 13.64 3 15 C2.01 15 1.02 15 0 15 C0 10.05 0 5.1 0 0 Z " fill="#000000" transform="translate(1400,797)"/>
<path d="M0 0 C2 2 2 2 2.0390625 4.50390625 C0.94162648 12.61043834 -1.6206754 17.7370572 -8 23 C-8.66 23 -9.32 23 -10 23 C-10.84962963 16.97706995 -11.45456294 12.01852507 -7.7734375 6.91015625 C-5.27455322 4.45702619 -2.74552653 2.17190759 0 0 Z " fill="#E9E9E9" transform="translate(549,612)"/>
<path d="M0 0 C0.66 0.33 1.32 0.66 2 1 C1.3684825 8.73286736 0.19541319 13.89765751 -5.24609375 19.57421875 C-7 21 -7 21 -10 22 C-10.64410674 17.83477644 -10.82587115 14.148788 -10 10 C-7.12053084 6.08998398 -3.7693021 3.04236526 0 0 Z " fill="#E9E9E9" transform="translate(1228,594)"/>
<path d="M0 0 C-4.23509103 5.77767385 -7.92969054 8.93936922 -14.765625 11.2109375 C-17.23802431 11.98103311 -17.23802431 11.98103311 -20 14 C-17.40176655 6.42181909 -13.37488165 3.35245499 -6.4375 -0.1796875 C-3.76842873 -1.07793264 -2.59676951 -0.97378856 0 0 Z " fill="#E5E5E5" transform="translate(1202,578)"/>
<path d="M0 0 C-9.94792312 10.84864051 -9.94792312 10.84864051 -17 12 C-17.99 12.66 -18.98 13.32 -20 14 C-18.63934865 8.38731319 -14.52851125 5.21429295 -10 2 C-3.09655172 -1.54827586 -3.09655172 -1.54827586 0 0 Z " fill="#E7E7E7" transform="translate(523,597)"/>
<path d="M0 0 C3.63 0 7.26 0 11 0 C11 0.99 11 1.98 11 3 C9.68 3 8.36 3 7 3 C7 6.96 7 10.92 7 15 C6.01 15 5.02 15 4 15 C4 11.04 4 7.08 4 3 C2.68 3 1.36 3 0 3 C0 2.01 0 1.02 0 0 Z " fill="#000000" transform="translate(1388,797)"/>
</svg>
